<?xml version="1.0" encoding="UTF-8" standalone="no"?>
<svg
   xmlns:dc="http://purl.org/dc/elements/1.1/"
   xmlns:cc="http://creativecommons.org/ns#"
   xmlns:rdf="http://www.w3.org/1999/02/22-rdf-syntax-ns#"
   xmlns:svg="http://www.w3.org/2000/svg"
   xmlns="http://www.w3.org/2000/svg"
   id="svg8"
   version="1.1"
   viewBox="0 0 37.657482 3.765413"
   height="3.765413mm"
   width="37.657482mm">
  <defs
     id="defs2" />
  <metadata
     id="metadata5">
    <rdf:RDF>
      <cc:Work
         rdf:about="">
        <dc:format>image/svg+xml</dc:format>
        <dc:type
           rdf:resource="http://purl.org/dc/dcmitype/StillImage" />
        <dc:title></dc:title>
      </cc:Work>
    </rdf:RDF>
  </metadata>
  <g
     transform="translate(-49.433239,-71.865689)"
     id="layer1">
    <g
       id="text817"
       style="font-style:normal;font-variant:normal;font-weight:normal;font-stretch:normal;font-size:3.95111108px;line-height:1.25;font-family:Raleway;-inkscape-font-specification:'Raleway, Normal';font-variant-ligatures:normal;font-variant-caps:normal;font-variant-numeric:normal;font-feature-settings:normal;text-align:start;letter-spacing:0px;word-spacing:0px;writing-mode:lr-tb;text-anchor:start;fill:#21252f;fill-opacity:0.94117647;stroke:none;stroke-width:0.26458332"
       aria-label="email">
      <path
         id="path1005"
         style="font-style:normal;font-variant:normal;font-weight:normal;font-stretch:normal;font-size:3.95111108px;font-family:Raleway;-inkscape-font-specification:'Raleway, Normal';font-variant-ligatures:normal;font-variant-caps:normal;font-variant-numeric:normal;font-feature-settings:normal;text-align:start;writing-mode:lr-tb;text-anchor:start;fill:#21252f;fill-opacity:0.94117647;stroke-width:0.26458332"
         d="M 51.163826,74.75 H 50.89515 v -1.149773 q 0,-0.367454 -0.110631,-0.5334 -0.10668,-0.165947 -0.331893,-0.165947 -0.118534,0 -0.237067,0.04346 -0.118533,0.04346 -0.221262,0.122485 -0.09878,0.07902 -0.1778,0.189653 -0.07902,0.10668 -0.114582,0.233116 V 74.75 h -0.268676 v -2.058529 h 0.244969 v 0.466231 q 0.126435,-0.225213 0.359551,-0.363502 0.237067,-0.138289 0.513644,-0.138289 0.169898,0 0.288432,0.06322 0.118533,0.06322 0.189653,0.1778 0.07112,0.114582 0.102729,0.280529 0.03161,0.165946 0.03161,0.367453 z" />
      <path
         id="path1007"
         style="font-style:normal;font-variant:normal;font-weight:normal;font-stretch:normal;font-size:3.95111108px;font-family:Raleway;-inkscape-font-specification:'Raleway, Normal';font-variant-ligatures:normal;font-variant-caps:normal;font-variant-numeric:normal;font-feature-settings:normal;text-align:start;writing-mode:lr-tb;text-anchor:start;fill:#21252f;fill-opacity:0.94117647;stroke-width:0.26458332"
         d="m 52.566408,74.777658 q -0.21336,0 -0.39116,-0.08693 -0.173849,-0.09087 -0.304235,-0.237066 -0.126436,-0.146191 -0.197556,-0.335845 -0.07112,-0.189653 -0.07112,-0.39116 0,-0.21336 0.06717,-0.406964 0.07112,-0.197556 0.197556,-0.343747 0.126435,-0.146191 0.300284,-0.233115 0.1778,-0.08692 0.39116,-0.08692 0.264725,0 0.458329,0.134338 0.193604,0.130387 0.331893,0.331893 v -0.430671 h 0.241018 v 2.066431 q 0,0.21336 -0.08297,0.375356 -0.07902,0.165946 -0.217311,0.276578 -0.134338,0.110631 -0.32004,0.165946 -0.181751,0.05532 -0.387209,0.05532 -0.3556,0 -0.572911,-0.126436 -0.217311,-0.126435 -0.351649,-0.339795 l 0.165946,-0.130387 q 0.122485,0.197556 0.323992,0.288431 0.201506,0.09483 0.434622,0.09483 0.150142,0 0.28448,-0.04346 0.134338,-0.03951 0.233115,-0.122485 0.102729,-0.07902 0.161996,-0.205458 0.05927,-0.122484 0.05927,-0.288431 v -0.406964 q -0.118534,0.197555 -0.323992,0.312138 -0.205457,0.114582 -0.430671,0.114582 z m 0.07507,-0.225214 q 0.118534,0 0.233116,-0.04346 0.114582,-0.04346 0.205458,-0.114582 0.09483,-0.07507 0.158044,-0.165947 0.06322,-0.09087 0.08297,-0.185702 v -0.636129 q -0.04346,-0.110631 -0.118534,-0.205458 -0.07507,-0.09483 -0.169898,-0.161995 -0.09483,-0.06717 -0.205457,-0.10668 -0.10668,-0.03951 -0.217311,-0.03951 -0.173849,0 -0.312138,0.07507 -0.134338,0.07112 -0.229165,0.189653 -0.09483,0.118534 -0.146191,0.268676 -0.04741,0.150142 -0.04741,0.304235 0,0.165947 0.05927,0.316089 0.05927,0.150142 0.161995,0.264725 0.10668,0.110631 0.244969,0.1778 0.138289,0.06322 0.300284,0.06322 z" />
      <path
         id="path1009"
         style="font-style:normal;font-variant:normal;font-weight:normal;font-stretch:normal;font-size:3.95111108px;font-family:Raleway;-inkscape-font-specification:'Raleway, Normal';font-variant-ligatures:normal;font-variant-caps:normal;font-variant-numeric:normal;font-feature-settings:normal;text-align:start;writing-mode:lr-tb;text-anchor:start;fill:#21252f;fill-opacity:0.94117647;stroke-width:0.26458332"
         d="m 57.241314,74.75 h -0.268676 v -1.149773 q 0,-0.359551 -0.114582,-0.529449 -0.114582,-0.169898 -0.339796,-0.169898 -0.118533,0 -0.225213,0.04346 -0.102729,0.04346 -0.193604,0.122485 -0.08693,0.07902 -0.154094,0.189653 -0.06717,0.10668 -0.102729,0.237067 V 74.75 h -0.268675 v -1.149773 q 0,-0.367454 -0.110631,-0.5334 -0.110631,-0.165947 -0.339796,-0.165947 -0.233115,0 -0.414867,0.161996 -0.181751,0.161995 -0.260773,0.42672 V 74.75 h -0.268675 v -2.058529 h 0.244968 v 0.466231 q 0.126436,-0.237066 0.331894,-0.367453 0.205458,-0.134338 0.454378,-0.134338 0.260773,0 0.414866,0.146191 0.158045,0.146191 0.193605,0.383258 0.288431,-0.529449 0.794173,-0.529449 0.173849,0 0.292382,0.06322 0.122485,0.06322 0.193605,0.181751 0.07507,0.114582 0.10668,0.280529 0.03556,0.161995 0.03556,0.363502 z" />
      <path
         id="path1011"
         style="font-style:normal;font-variant:normal;font-weight:normal;font-stretch:normal;font-size:3.95111108px;font-family:Raleway;-inkscape-font-specification:'Raleway, Normal';font-variant-ligatures:normal;font-variant-caps:normal;font-variant-numeric:normal;font-feature-settings:normal;text-align:start;writing-mode:lr-tb;text-anchor:start;fill:#21252f;fill-opacity:0.94117647;stroke-width:0.26458332"
         d="m 57.813916,74.75 v -2.058529 h 0.268676 V 74.75 Z m 0,-2.4892 v -0.395111 h 0.268676 V 72.2608 Z" />
      <path
         id="path1013"
         style="font-style:normal;font-variant:normal;font-weight:normal;font-stretch:normal;font-size:3.95111108px;font-family:Raleway;-inkscape-font-specification:'Raleway, Normal';font-variant-ligatures:normal;font-variant-caps:normal;font-variant-numeric:normal;font-feature-settings:normal;text-align:start;writing-mode:lr-tb;text-anchor:start;fill:#21252f;fill-opacity:0.94117647;stroke-width:0.26458332"
         d="m 58.535982,73.714809 q 0,-0.217311 0.07507,-0.410916 0.07507,-0.193604 0.209409,-0.335844 0.138289,-0.146191 0.327942,-0.229165 0.189653,-0.08297 0.418818,-0.08297 0.292382,0 0.509693,0.134338 0.217311,0.130387 0.327942,0.3556 l -0.260773,0.08297 q -0.08693,-0.158044 -0.244969,-0.244969 -0.154093,-0.09087 -0.343747,-0.09087 -0.158044,0 -0.296333,0.06322 -0.134338,0.06322 -0.237067,0.173848 -0.09878,0.10668 -0.158044,0.256823 -0.05532,0.150142 -0.05532,0.327942 0,0.173849 0.05927,0.327942 0.05927,0.154093 0.161996,0.268676 0.102728,0.110631 0.237066,0.1778 0.138289,0.06322 0.292382,0.06322 0.09878,0 0.193605,-0.02766 0.09878,-0.02766 0.181751,-0.07507 0.08297,-0.05136 0.14224,-0.114583 0.05927,-0.06322 0.08297,-0.134337 l 0.264725,0.07902 q -0.04346,0.110631 -0.126436,0.205458 -0.08297,0.09087 -0.197555,0.161995 -0.110631,0.06717 -0.24892,0.102729 -0.134338,0.03951 -0.280529,0.03951 -0.225214,0 -0.414867,-0.08297 -0.189653,-0.08692 -0.327942,-0.233116 -0.138289,-0.150142 -0.217311,-0.343746 -0.07507,-0.193605 -0.07507,-0.414867 z" />
      <path
         id="path1015"
         style="font-style:normal;font-variant:normal;font-weight:normal;font-stretch:normal;font-size:3.95111108px;font-family:Raleway;-inkscape-font-specification:'Raleway, Normal';font-variant-ligatures:normal;font-variant-caps:normal;font-variant-numeric:normal;font-feature-settings:normal;text-align:start;writing-mode:lr-tb;text-anchor:start;fill:#21252f;fill-opacity:0.94117647;stroke-width:0.26458332"
         d="m 61.364298,74.789511 q -0.146191,0 -0.272627,-0.04741 -0.122484,-0.05137 -0.217311,-0.138289 -0.09088,-0.08692 -0.14224,-0.201507 -0.05136,-0.118533 -0.05136,-0.252871 0,-0.134338 0.06322,-0.24892 0.06322,-0.114582 0.1778,-0.197555 0.114582,-0.08297 0.272626,-0.126436 0.158045,-0.04741 0.347698,-0.04741 0.158045,0 0.32004,0.02766 0.161996,0.02766 0.288431,0.07902 V 73.45009 q 0,-0.272626 -0.154093,-0.430671 -0.154093,-0.161995 -0.42672,-0.161995 -0.158045,0 -0.323991,0.06322 -0.165947,0.06322 -0.335845,0.181751 l -0.09483,-0.1778 q 0.399062,-0.268676 0.774417,-0.268676 0.387209,0 0.608472,0.217311 0.221262,0.217311 0.221262,0.600569 v 0.928511 q 0,0.110631 0.09878,0.110631 V 74.75 q -0.06717,0.01185 -0.102729,0.01185 -0.102729,0 -0.161996,-0.05136 -0.05532,-0.05136 -0.05927,-0.14224 l -0.0079,-0.161996 q -0.14224,0.185703 -0.359551,0.28448 -0.21336,0.09878 -0.46228,0.09878 z m 0.06322,-0.205458 q 0.209409,0 0.383258,-0.07902 0.1778,-0.07902 0.268675,-0.209409 0.03556,-0.03556 0.05137,-0.07507 0.01975,-0.04346 0.01975,-0.07902 v -0.335845 q -0.134338,-0.05136 -0.280529,-0.07902 -0.14224,-0.02766 -0.292382,-0.02766 -0.28448,0 -0.46228,0.118534 -0.1778,0.118533 -0.1778,0.312138 0,0.09483 0.03556,0.1778 0.03951,0.08297 0.102729,0.146191 0.06717,0.05927 0.158044,0.09483 0.09088,0.03556 0.193605,0.03556 z" />
      <path
         id="path1017"
         style="font-style:normal;font-variant:normal;font-weight:normal;font-stretch:normal;font-size:3.95111108px;font-family:Raleway;-inkscape-font-specification:'Raleway, Normal';font-variant-ligatures:normal;font-variant-caps:normal;font-variant-numeric:normal;font-feature-settings:normal;text-align:start;writing-mode:lr-tb;text-anchor:start;fill:#21252f;fill-opacity:0.94117647;stroke-width:0.26458332"
         d="M 64.730336,74.75 H 64.46166 v -1.149773 q 0,-0.351649 -0.122484,-0.525498 -0.118533,-0.173849 -0.351649,-0.173849 -0.114582,0 -0.229164,0.04741 -0.110632,0.04346 -0.209409,0.122485 -0.09878,0.07902 -0.173849,0.185702 -0.07112,0.10668 -0.10668,0.233116 V 74.75 h -0.268676 v -2.884311 h 0.268676 v 1.292013 q 0.122484,-0.233115 0.339795,-0.367453 0.217311,-0.134338 0.470183,-0.134338 0.1778,0 0.300284,0.06717 0.122484,0.06322 0.201507,0.181751 0.07902,0.114582 0.114582,0.280529 0.03556,0.161996 0.03556,0.359551 z" />
      <path
         id="path1019"
         style="font-style:normal;font-variant:normal;font-weight:normal;font-stretch:normal;font-size:3.95111108px;font-family:Raleway;-inkscape-font-specification:'Raleway, Normal';font-variant-ligatures:normal;font-variant-caps:normal;font-variant-numeric:normal;font-feature-settings:normal;text-align:start;writing-mode:lr-tb;text-anchor:start;fill:#21252f;fill-opacity:0.94117647;stroke-width:0.26458332"
         d="m 66.658417,72.36748 q 0.292382,0 0.553155,0.110631 0.260773,0.10668 0.458329,0.308187 0.197556,0.197555 0.312138,0.474133 0.114582,0.276578 0.114582,0.612422 0,0.05532 -0.0079,0.150143 -0.004,0.09087 -0.02371,0.193604 -0.01975,0.102729 -0.05927,0.209409 -0.03556,0.10668 -0.09878,0.193604 -0.06322,0.08692 -0.158045,0.138289 -0.09483,0.05532 -0.229164,0.05532 -0.09878,0 -0.161996,-0.03161 -0.05927,-0.02766 -0.09483,-0.07902 -0.03556,-0.05136 -0.05136,-0.114583 -0.0158,-0.06717 -0.02371,-0.138288 -0.110631,0.114582 -0.28448,0.197555 -0.173848,0.08297 -0.383257,0.08297 -0.280529,0 -0.438574,-0.146191 -0.154093,-0.150142 -0.154093,-0.383257 0,-0.150143 0.06322,-0.252872 0.06717,-0.102728 0.169898,-0.161995 0.10668,-0.06322 0.237066,-0.08692 0.130387,-0.02766 0.260774,-0.02766 0.173848,0 0.304235,0.03556 0.130387,0.03161 0.197556,0.05531 0,-0.14224 -0.02371,-0.256822 -0.01976,-0.118533 -0.07507,-0.201507 -0.05532,-0.08297 -0.150142,-0.130386 -0.09483,-0.04741 -0.241018,-0.04741 -0.154093,0 -0.296333,0.05137 -0.14224,0.04741 -0.256823,0.134338 l -0.07112,-0.154094 q 0.14224,-0.09483 0.300285,-0.150142 0.161995,-0.05532 0.347698,-0.05532 0.217311,0 0.343746,0.07507 0.130387,0.07112 0.197556,0.189653 0.06717,0.114582 0.08297,0.260773 0.01976,0.14224 0.01976,0.28448 v 0.509694 q 0,0.08692 0.004,0.161995 0.0079,0.07112 0.02766,0.122485 0.02371,0.05136 0.06322,0.08297 0.04346,0.02766 0.110631,0.02766 0.122485,0 0.201507,-0.08297 0.07902,-0.08692 0.126436,-0.209409 0.04741,-0.122484 0.06322,-0.260773 0.01976,-0.14224 0.01976,-0.24892 0,-0.28448 -0.09878,-0.5334 -0.09878,-0.24892 -0.276578,-0.430671 -0.173848,-0.185702 -0.410915,-0.292382 -0.237067,-0.10668 -0.513645,-0.10668 -0.268675,0 -0.509693,0.102729 -0.237067,0.09878 -0.418818,0.276577 -0.1778,0.1778 -0.28448,0.422769 -0.102729,0.244969 -0.102729,0.537351 0,0.280529 0.09878,0.529449 0.09878,0.244969 0.268676,0.42672 0.173849,0.185703 0.410915,0.288431 0.237067,0.10668 0.517596,0.10668 0.169898,0 0.312138,-0.03951 0.146191,-0.03951 0.292382,-0.110631 l 0.05136,0.126436 q -0.161995,0.07902 -0.327942,0.118533 -0.165947,0.03951 -0.331893,0.03951 -0.296334,0 -0.557107,-0.110631 -0.260773,-0.110631 -0.458329,-0.312138 -0.193604,-0.197555 -0.308186,-0.470182 -0.110632,-0.272627 -0.110632,-0.592667 0,-0.335844 0.118534,-0.60452 0.122484,-0.272626 0.323991,-0.466231 0.205458,-0.193604 0.470182,-0.296333 0.264725,-0.10668 0.549205,-0.10668 z m 0.241017,2.105942 q 0.165947,-0.07902 0.209409,-0.185702 0.04741,-0.10668 0.04741,-0.217311 v -0.158045 q -0.05136,-0.0079 -0.185703,-0.04741 -0.130386,-0.03951 -0.32004,-0.03951 -0.102729,0 -0.201506,0.01976 -0.09878,0.0158 -0.173849,0.05927 -0.07507,0.04346 -0.122485,0.114582 -0.04346,0.06717 -0.04346,0.173849 0,0.165947 0.118533,0.268676 0.118534,0.09878 0.304236,0.09878 0.09878,0 0.193604,-0.02371 0.09878,-0.02766 0.173849,-0.06322 z" />
      <path
         id="path1021"
         style="font-style:normal;font-variant:normal;font-weight:normal;font-stretch:normal;font-size:3.95111108px;font-family:Raleway;-inkscape-font-specification:'Raleway, Normal';font-variant-ligatures:normal;font-variant-caps:normal;font-variant-numeric:normal;font-feature-settings:normal;text-align:start;writing-mode:lr-tb;text-anchor:start;fill:#21252f;fill-opacity:0.94117647;stroke-width:0.26458332"
         d="m 69.443517,74.777658 q -0.21336,0 -0.39116,-0.08693 -0.173849,-0.09087 -0.304235,-0.237066 -0.126436,-0.146191 -0.197556,-0.335845 -0.07112,-0.189653 -0.07112,-0.39116 0,-0.21336 0.06717,-0.406964 0.07112,-0.197556 0.197555,-0.343747 0.126436,-0.146191 0.300285,-0.233115 0.1778,-0.08692 0.39116,-0.08692 0.264724,0 0.458329,0.134338 0.193604,0.130387 0.331893,0.331893 v -0.430671 h 0.241018 v 2.066431 q 0,0.21336 -0.08297,0.375356 -0.07902,0.165946 -0.217312,0.276578 -0.134337,0.110631 -0.32004,0.165946 -0.181751,0.05532 -0.387208,0.05532 -0.3556,0 -0.572912,-0.126436 -0.217311,-0.126435 -0.351648,-0.339795 l 0.165946,-0.130387 q 0.122485,0.197556 0.323991,0.288431 0.201507,0.09483 0.434623,0.09483 0.150142,0 0.28448,-0.04346 0.134337,-0.03951 0.233115,-0.122485 0.102729,-0.07902 0.161996,-0.205458 0.05927,-0.122484 0.05927,-0.288431 v -0.406964 q -0.118533,0.197555 -0.323991,0.312138 -0.205458,0.114582 -0.430671,0.114582 z m 0.07507,-0.225214 q 0.118534,0 0.233116,-0.04346 0.114582,-0.04346 0.205458,-0.114582 0.09483,-0.07507 0.158044,-0.165947 0.06322,-0.09087 0.08297,-0.185702 v -0.636129 q -0.04346,-0.110631 -0.118533,-0.205458 -0.07507,-0.09483 -0.169898,-0.161995 -0.09483,-0.06717 -0.205458,-0.10668 -0.10668,-0.03951 -0.217311,-0.03951 -0.173849,0 -0.312137,0.07507 -0.134338,0.07112 -0.229165,0.189653 -0.09483,0.118534 -0.146191,0.268676 -0.04741,0.150142 -0.04741,0.304235 0,0.165947 0.05927,0.316089 0.05927,0.150142 0.161996,0.264725 0.10668,0.110631 0.244969,0.1778 0.138289,0.06322 0.300284,0.06322 z" />
      <path
         id="path1023"
         style="font-style:normal;font-variant:normal;font-weight:normal;font-stretch:normal;font-size:3.95111108px;font-family:Raleway;-inkscape-font-specification:'Raleway, Normal';font-variant-ligatures:normal;font-variant-caps:normal;font-variant-numeric:normal;font-feature-settings:normal;text-align:start;writing-mode:lr-tb;text-anchor:start;fill:#21252f;fill-opacity:0.94117647;stroke-width:0.26458332"
         d="m 74.118424,74.75 h -0.268676 v -1.149773 q 0,-0.359551 -0.114582,-0.529449 -0.114582,-0.169898 -0.339796,-0.169898 -0.118533,0 -0.225213,0.04346 -0.102729,0.04346 -0.193604,0.122485 -0.08692,0.07902 -0.154094,0.189653 -0.06717,0.10668 -0.102729,0.237067 V 74.75 h -0.268675 v -1.149773 q 0,-0.367454 -0.110631,-0.5334 -0.110631,-0.165947 -0.339796,-0.165947 -0.233115,0 -0.414867,0.161996 -0.181751,0.161995 -0.260773,0.42672 V 74.75 h -0.268675 v -2.058529 h 0.244968 v 0.466231 q 0.126436,-0.237066 0.331894,-0.367453 0.205458,-0.134338 0.454378,-0.134338 0.260773,0 0.414866,0.146191 0.158045,0.146191 0.193605,0.383258 0.288431,-0.529449 0.794173,-0.529449 0.173849,0 0.292382,0.06322 0.122485,0.06322 0.193605,0.181751 0.07507,0.114582 0.10668,0.280529 0.03556,0.161995 0.03556,0.363502 z" />
      <path
         id="path1025"
         style="font-style:normal;font-variant:normal;font-weight:normal;font-stretch:normal;font-size:3.95111108px;font-family:Raleway;-inkscape-font-specification:'Raleway, Normal';font-variant-ligatures:normal;font-variant-caps:normal;font-variant-numeric:normal;font-feature-settings:normal;text-align:start;writing-mode:lr-tb;text-anchor:start;fill:#21252f;fill-opacity:0.94117647;stroke-width:0.26458332"
         d="m 75.20862,74.789511 q -0.146191,0 -0.272626,-0.04741 -0.122485,-0.05137 -0.217311,-0.138289 -0.09088,-0.08692 -0.14224,-0.201507 -0.05137,-0.118533 -0.05137,-0.252871 0,-0.134338 0.06322,-0.24892 0.06322,-0.114582 0.1778,-0.197555 0.114582,-0.08297 0.272627,-0.126436 0.158044,-0.04741 0.347697,-0.04741 0.158045,0 0.32004,0.02766 0.161996,0.02766 0.288431,0.07902 V 73.45009 q 0,-0.272626 -0.154093,-0.430671 -0.154093,-0.161995 -0.42672,-0.161995 -0.158044,0 -0.323991,0.06322 -0.165947,0.06322 -0.335844,0.181751 l -0.09483,-0.1778 q 0.399062,-0.268676 0.774418,-0.268676 0.387209,0 0.608471,0.217311 0.221262,0.217311 0.221262,0.600569 v 0.928511 q 0,0.110631 0.09878,0.110631 V 74.75 q -0.06717,0.01185 -0.102729,0.01185 -0.102729,0 -0.161996,-0.05136 -0.05532,-0.05136 -0.05927,-0.14224 l -0.0079,-0.161996 q -0.14224,0.185703 -0.359551,0.28448 -0.21336,0.09878 -0.46228,0.09878 z m 0.06322,-0.205458 q 0.209409,0 0.383258,-0.07902 0.1778,-0.07902 0.268675,-0.209409 0.03556,-0.03556 0.05137,-0.07507 0.01975,-0.04346 0.01975,-0.07902 v -0.335845 q -0.134337,-0.05136 -0.280528,-0.07902 -0.14224,-0.02766 -0.292383,-0.02766 -0.28448,0 -0.46228,0.118534 -0.1778,0.118533 -0.1778,0.312138 0,0.09483 0.03556,0.1778 0.03951,0.08297 0.102729,0.146191 0.06717,0.05927 0.158045,0.09483 0.09088,0.03556 0.193604,0.03556 z" />
      <path
         id="path1027"
         style="font-style:normal;font-variant:normal;font-weight:normal;font-stretch:normal;font-size:3.95111108px;font-family:Raleway;-inkscape-font-specification:'Raleway, Normal';font-variant-ligatures:normal;font-variant-caps:normal;font-variant-numeric:normal;font-feature-settings:normal;text-align:start;writing-mode:lr-tb;text-anchor:start;fill:#21252f;fill-opacity:0.94117647;stroke-width:0.26458332"
         d="m 76.844072,74.75 v -2.058529 h 0.268676 V 74.75 Z m 0,-2.4892 v -0.395111 h 0.268676 V 72.2608 Z" />
      <path
         id="path1029"
         style="font-style:normal;font-variant:normal;font-weight:normal;font-stretch:normal;font-size:3.95111108px;font-family:Raleway;-inkscape-font-specification:'Raleway, Normal';font-variant-ligatures:normal;font-variant-caps:normal;font-variant-numeric:normal;font-feature-settings:normal;text-align:start;writing-mode:lr-tb;text-anchor:start;fill:#21252f;fill-opacity:0.94117647;stroke-width:0.26458332"
         d="m 77.720231,71.865689 h 0.268676 v 2.41808 q 0,0.114582 0.06322,0.181751 0.06322,0.06322 0.1778,0.06322 0.04346,0 0.102728,-0.01185 0.05927,-0.01185 0.110632,-0.03161 l 0.04741,0.217311 q -0.07507,0.03161 -0.185702,0.05136 -0.10668,0.01976 -0.185703,0.01976 -0.185702,0 -0.292382,-0.102729 -0.10668,-0.10668 -0.10668,-0.296334 z" />
      <path
         id="path1031"
         style="font-style:normal;font-variant:normal;font-weight:normal;font-stretch:normal;font-size:3.95111108px;font-family:Raleway;-inkscape-font-specification:'Raleway, Normal';font-variant-ligatures:normal;font-variant-caps:normal;font-variant-numeric:normal;font-feature-settings:normal;text-align:start;writing-mode:lr-tb;text-anchor:start;fill:#21252f;fill-opacity:0.94117647;stroke-width:0.26458332"
         d="m 78.741531,74.75 v -0.387209 h 0.233116 V 74.75 Z" />
      <path
         id="path1033"
         style="font-style:normal;font-variant:normal;font-weight:normal;font-stretch:normal;font-size:3.95111108px;font-family:Raleway;-inkscape-font-specification:'Raleway, Normal';font-variant-ligatures:normal;font-variant-caps:normal;font-variant-numeric:normal;font-feature-settings:normal;text-align:start;writing-mode:lr-tb;text-anchor:start;fill:#21252f;fill-opacity:0.94117647;stroke-width:0.26458332"
         d="m 79.387353,73.714809 q 0,-0.217311 0.07507,-0.410916 0.07507,-0.193604 0.209409,-0.335844 0.138288,-0.146191 0.327942,-0.229165 0.189653,-0.08297 0.418818,-0.08297 0.292382,0 0.509693,0.134338 0.217311,0.130387 0.327942,0.3556 l -0.260773,0.08297 q -0.08693,-0.158044 -0.244969,-0.244969 -0.154093,-0.09087 -0.343747,-0.09087 -0.158044,0 -0.296333,0.06322 -0.134338,0.06322 -0.237067,0.173848 -0.09878,0.10668 -0.158044,0.256823 -0.05532,0.150142 -0.05532,0.327942 0,0.173849 0.05927,0.327942 0.05927,0.154093 0.161995,0.268676 0.102729,0.110631 0.237067,0.1778 0.138289,0.06322 0.292382,0.06322 0.09878,0 0.193605,-0.02766 0.09878,-0.02766 0.181751,-0.07507 0.08297,-0.05136 0.14224,-0.114583 0.05927,-0.06322 0.08297,-0.134337 l 0.264725,0.07902 q -0.04346,0.110631 -0.126436,0.205458 -0.08297,0.09087 -0.197555,0.161995 -0.110632,0.06717 -0.24892,0.102729 -0.134338,0.03951 -0.280529,0.03951 -0.225214,0 -0.414867,-0.08297 -0.189653,-0.08692 -0.327942,-0.233116 -0.138289,-0.150142 -0.217311,-0.343746 -0.07507,-0.193605 -0.07507,-0.414867 z" />
      <path
         id="path1035"
         style="font-style:normal;font-variant:normal;font-weight:normal;font-stretch:normal;font-size:3.95111108px;font-family:Raleway;-inkscape-font-specification:'Raleway, Normal';font-variant-ligatures:normal;font-variant-caps:normal;font-variant-numeric:normal;font-feature-settings:normal;text-align:start;writing-mode:lr-tb;text-anchor:start;fill:#21252f;fill-opacity:0.94117647;stroke-width:0.26458332"
         d="m 82.55207,74.789511 q -0.225214,0 -0.410916,-0.08297 -0.185702,-0.08692 -0.323991,-0.233116 -0.134338,-0.146191 -0.209409,-0.339795 -0.07507,-0.193605 -0.07507,-0.406965 0,-0.217311 0.07507,-0.410915 0.07902,-0.193605 0.21336,-0.339796 0.138289,-0.146191 0.323991,-0.233115 0.185702,-0.08692 0.406965,-0.08692 0.221262,0 0.406964,0.08692 0.189653,0.08692 0.323991,0.233115 0.138289,0.146191 0.21336,0.339796 0.07902,0.193604 0.07902,0.410915 0,0.21336 -0.07507,0.406965 -0.07507,0.193604 -0.21336,0.339795 -0.134337,0.146191 -0.323991,0.233116 -0.185702,0.08297 -0.410914,0.08297 z m -0.74676,-1.058898 q 0,0.173849 0.05927,0.323991 0.05927,0.146192 0.158045,0.260774 0.102729,0.110631 0.237066,0.173849 0.138289,0.06322 0.292383,0.06322 0.154093,0 0.288431,-0.06322 0.138289,-0.06717 0.241018,-0.1778 0.102728,-0.114583 0.161995,-0.264725 0.05927,-0.150142 0.05927,-0.323991 0,-0.169898 -0.05927,-0.32004 -0.05927,-0.154093 -0.161995,-0.264724 -0.102729,-0.114583 -0.241018,-0.1778 -0.134338,-0.06717 -0.288431,-0.06717 -0.154094,0 -0.288431,0.06717 -0.134338,0.06322 -0.237067,0.1778 -0.102729,0.114582 -0.161996,0.268675 -0.05927,0.150142 -0.05927,0.323991 z" />
      <path
         id="path1037"
         style="font-style:normal;font-variant:normal;font-weight:normal;font-stretch:normal;font-size:3.95111108px;font-family:Raleway;-inkscape-font-specification:'Raleway, Normal';font-variant-ligatures:normal;font-variant-caps:normal;font-variant-numeric:normal;font-feature-settings:normal;text-align:start;writing-mode:lr-tb;text-anchor:start;fill:#21252f;fill-opacity:0.94117647;stroke-width:0.26458332"
         d="m 87.090721,74.75 h -0.268675 v -1.149773 q 0,-0.359551 -0.114582,-0.529449 -0.114583,-0.169898 -0.339796,-0.169898 -0.118533,0 -0.225213,0.04346 -0.102729,0.04346 -0.193605,0.122485 -0.08692,0.07902 -0.154093,0.189653 -0.06717,0.10668 -0.102729,0.237067 V 74.75 h -0.268676 v -1.149773 q 0,-0.367454 -0.110631,-0.5334 -0.110631,-0.165947 -0.339795,-0.165947 -0.233116,0 -0.414867,0.161996 -0.181751,0.161995 -0.260773,0.42672 V 74.75 H 84.02861 v -2.058529 h 0.244969 v 0.466231 q 0.126436,-0.237066 0.331893,-0.367453 0.205458,-0.134338 0.454378,-0.134338 0.260774,0 0.414867,0.146191 0.158044,0.146191 0.193604,0.383258 0.288431,-0.529449 0.794174,-0.529449 0.173849,0 0.292382,0.06322 0.122484,0.06322 0.193604,0.181751 0.07507,0.114582 0.10668,0.280529 0.03556,0.161995 0.03556,0.363502 z" />
    </g>
  </g>
</svg>
