<?xml version="1.0" encoding="UTF-8" standalone="no"?>
<svg
   xmlns:dc="http://purl.org/dc/elements/1.1/"
   xmlns:cc="http://creativecommons.org/ns#"
   xmlns:rdf="http://www.w3.org/1999/02/22-rdf-syntax-ns#"
   xmlns:svg="http://www.w3.org/2000/svg"
   xmlns="http://www.w3.org/2000/svg"
   xmlns:sodipodi="http://sodipodi.sourceforge.net/DTD/sodipodi-0.dtd"
   xmlns:inkscape="http://www.inkscape.org/namespaces/inkscape"
   id="svg8"
   version="1.1"
   viewBox="0 0 30.619166 3.6117391"
   height="3.6117392mm"
   width="30.619165mm"
   sodipodi:docname="zjd_email.svg"
   inkscape:version="0.92.2 5c3e80d, 2017-08-06">
  <sodipodi:namedview
     pagecolor="#ffffff"
     bordercolor="#666666"
     borderopacity="1"
     objecttolerance="10"
     gridtolerance="10"
     guidetolerance="10"
     inkscape:pageopacity="0"
     inkscape:pageshadow="2"
     inkscape:window-width="1505"
     inkscape:window-height="672"
     id="namedview24"
     showgrid="false"
     fit-margin-top="0"
     fit-margin-left="0"
     fit-margin-right="0"
     fit-margin-bottom="0"
     inkscape:zoom="2.269414"
     inkscape:cx="23.743676"
     inkscape:cy="7.3185085"
     inkscape:window-x="0"
     inkscape:window-y="0"
     inkscape:window-maximized="0"
     inkscape:current-layer="text8457" />
  <defs
     id="defs2" />
  <metadata
     id="metadata5">
    <rdf:RDF>
      <cc:Work
         rdf:about="">
        <dc:format>image/svg+xml</dc:format>
        <dc:type
           rdf:resource="http://purl.org/dc/dcmitype/StillImage" />
        <dc:title></dc:title>
      </cc:Work>
    </rdf:RDF>
  </metadata>
  <g
     transform="translate(-49.436666,-72.073012)"
     id="layer1">
    <g
       id="text817"
       style="font-style:normal;font-variant:normal;font-weight:normal;font-stretch:normal;font-size:3.95111108px;line-height:1.25;font-family:Raleway;-inkscape-font-specification:'Raleway, Normal';font-variant-ligatures:normal;font-variant-caps:normal;font-variant-numeric:normal;font-feature-settings:normal;text-align:start;letter-spacing:0px;word-spacing:0px;writing-mode:lr-tb;text-anchor:start;fill:#21252f;fill-opacity:0.94117647;stroke:none;stroke-width:0.26458332"
       aria-label="email">
      <g
         aria-label="email address"
         style="font-style:normal;font-weight:normal;font-size:10.58333397px;line-height:125%;font-family:sans-serif;letter-spacing:0px;word-spacing:0px;fill:#000000;fill-opacity:1;stroke:none;stroke-width:0.26458335px;stroke-linecap:butt;stroke-linejoin:miter;stroke-opacity:1"
         id="text8457">
        <path
           d="m 49.569128,72.881932 q 0.05503,-0.05927 0.1905,-0.0635 0.135467,-0.0085 0.262467,0.0381 0.1016,0.04233 0.5842,0.04657 0.321733,0.0042 0.410633,0.01693 0.0889,0.0127 0.122767,0.05927 0.148166,0.207434 -0.0889,0.381 -0.1016,0.0762 -0.313267,0.283634 -0.211667,0.2032 -0.381,0.381 -0.1651,0.1778 -0.148167,0.186266 0.02117,0.0127 0.2286,0.01693 0.211667,0 0.4572,0.0042 0.245534,0.0042 0.325967,0.02117 0.1016,0.0254 0.1524,0.09737 0.0508,0.06773 0.0254,0.1524 -0.02963,0.09737 -0.127,0.118534 -0.09313,0.02117 -0.334433,-0.01693 -0.2159,-0.02963 -0.6223,-0.0085 -0.402167,0.02117 -0.563034,0.07197 -0.0889,0.02963 -0.207433,-0.08467 -0.118533,-0.118534 -0.105833,-0.220134 0.0127,-0.105833 0.09313,-0.143933 0.04233,-0.02117 0.283633,-0.2286 0.2413,-0.207433 0.448734,-0.436033 0.207433,-0.232834 0.135466,-0.275167 -0.04233,-0.0254 -0.376766,-0.0381 -0.2159,-0.0042 -0.2921,-0.02117 -0.0762,-0.01693 -0.131234,-0.07197 -0.08043,-0.07197 -0.0889,-0.131234 -0.0042,-0.0635 0.05927,-0.135466 z"
           style="font-style:normal;font-variant:normal;font-weight:normal;font-stretch:normal;font-size:4.23333359px;line-height:20.0000003%;font-family:ZachsSharpie;-inkscape-font-specification:ZachsSharpie;stroke-width:0.26458335px"
           id="path8463" />
        <path
           d="m 52.593316,72.911565 q 0.160866,-0.08467 0.338666,0.04657 0.05503,0.04233 0.06773,0.135466 0.0127,0.118534 0.01693,0.918634 0,0.706966 -0.0127,0.8636 -0.0085,0.1524 -0.0635,0.2286 -0.0762,0.105833 -0.0762,0.127 0,0.0254 -0.110067,0.1651 l -0.110066,0.1397 -0.482601,0.04233 q -0.3048,0.0254 -0.4064,0.0254 -0.1016,0 -0.1524,-0.0381 -0.09313,-0.05503 -0.1143,-0.1524 -0.01693,-0.09313 0.0508,-0.1651 0.04233,-0.0508 0.08467,-0.0635 0.04233,-0.0085 0.143933,0.0085 0.1524,0.02117 0.3556,-0.02117 0.207434,-0.0381 0.262467,-0.1016 0.1778,-0.207433 0.207434,-0.948267 l 0.02117,-0.4699 -0.1397,-0.135466 q -0.135466,-0.135467 -0.135466,-0.232834 0,-0.08467 0.08043,-0.2032 0.08043,-0.118533 0.173567,-0.169333 z m -0.04233,-0.7366 q 0.06773,-0.0762 0.105834,-0.09313 0.0381,-0.01693 0.127,0 0.169333,0.02963 0.249766,0.156633 0.08043,0.127 0.03387,0.275167 -0.04233,0.148166 -0.194733,0.2286 -0.05503,0.0254 -0.105834,0.02117 -0.04657,-0.0085 -0.148166,-0.05503 -0.364067,-0.173567 -0.06773,-0.5334 z"
           style="font-style:normal;font-variant:normal;font-weight:normal;font-stretch:normal;font-size:4.23333359px;line-height:20.0000003%;font-family:ZachsSharpie;-inkscape-font-specification:ZachsSharpie;stroke-width:0.26458335px"
           id="path8465" />
        <path
           d="m 54.259066,72.208832 q 0.05927,-0.06773 0.169333,-0.0635 0.110067,0.0042 0.198967,0.08043 l 0.1016,0.0889 -0.04657,0.897467 q -0.0508,0.9017 -0.0127,1.100666 0.0381,0.194734 0.0042,0.287867 -0.03387,0.09313 -0.160867,0.148167 -0.09313,0.0381 -0.127,0.03387 -0.03387,-0.0042 -0.110067,-0.05927 l -0.105833,-0.08043 -0.156633,0.08043 q -0.118534,0.05927 -0.262467,0.07197 -0.143933,0.0127 -0.173567,-0.02963 -0.02117,-0.03387 -0.08467,-0.02963 -0.09737,0.0042 -0.186267,-0.0762 -0.0889,-0.08467 -0.118533,-0.220134 -0.04233,-0.148166 -0.0085,-0.376766 0.0381,-0.232834 0.122767,-0.351367 0.06773,-0.1016 0.06773,-0.131233 0.0042,-0.0381 0.09737,-0.1397 0.09313,-0.1016 0.182033,-0.156634 0.1143,-0.0762 0.338667,-0.1143 0.1524,-0.0254 0.1905,-0.04657 0.0381,-0.0254 0.05927,-0.110067 0.02117,-0.08467 0.0127,-0.207433 -0.0042,-0.122767 -0.02117,-0.237067 -0.0127,-0.1143 -0.0127,-0.2159 0.0042,-0.1016 0.04233,-0.143933 z m -0.105833,1.4605 q -0.02117,-0.143934 -0.169334,-0.08043 -0.1143,0.04657 -0.237066,0.198967 -0.1651,0.207433 -0.148167,0.448733 0.0085,0.1778 0.127,0.182034 0.02117,0 0.0508,-0.0085 0.1016,-0.02963 0.245533,-0.3175 0.148167,-0.287867 0.131234,-0.423333 z"
           style="font-style:normal;font-variant:normal;font-weight:normal;font-stretch:normal;font-size:4.23333359px;line-height:20.0000003%;font-family:ZachsSharpie;-inkscape-font-specification:ZachsSharpie;stroke-width:0.26458335px"
           id="path8467" />
        <path
           d="m 55.840944,73.855598 q 0,0.04657 -0.207434,0.478367 -0.2032,0.427567 -0.2032,0.461433 0,0.0508 -0.1143,0.122767 -0.1143,0.06773 -0.169333,0.04657 -0.1905,-0.06773 -0.198967,-0.224367 -0.0085,-0.160867 0.1651,-0.427567 0.169334,-0.258233 0.169334,-0.283633 0,-0.0127 0.01693,-0.0381 0.02117,-0.02963 0.0635,-0.105833 0.04657,-0.0762 0.0889,-0.1905 0.0381,-0.110067 0.1016,-0.262467 0.06773,-0.156633 0.1016,-0.249767 0.0381,-0.09737 0.0381,-0.135466 0,-0.06773 0.04233,-0.105834 0.08467,-0.0889 -0.08467,-0.110066 -0.105834,-0.01693 -0.334434,-0.01693 h -0.410633 l -0.05503,-0.135466 q -0.0381,-0.09313 -0.0381,-0.127 0,-0.0381 0.0381,-0.1016 0.04233,-0.06773 0.0889,-0.0762 0.04657,-0.0085 0.258233,0.01693 0.283633,0.02963 0.440267,0.0254 0.156633,-0.0042 0.2032,-0.0254 0.0508,-0.02117 0.08043,-0.04233 0.02963,-0.02117 0.05503,-0.02117 0.07197,0 0.198967,0.06773 0.127,0.06773 0.1524,0.118534 0.04657,0.08043 0.0381,0.173566 -0.0085,0.09313 -0.05927,0.122767 -0.03387,0.01693 -0.0889,0.135467 -0.0508,0.118533 -0.110066,0.2794 -0.05503,0.156633 -0.0889,0.220133 l -0.1143,0.2286 q -0.0635,0.122767 -0.0635,0.182033 z"
           style="font-style:normal;font-variant:normal;font-weight:normal;font-stretch:normal;font-size:4.23333359px;line-height:20.0000003%;font-family:ZachsSharpie;-inkscape-font-specification:ZachsSharpie;stroke-width:0.26458335px"
           id="path8469" />
        <path
           d="m 57.02932,73.148632 q 0.245533,-0.1016 0.440267,-0.0508 0.194733,0.04657 0.194733,0.2032 0,0.09737 -0.08043,0.143933 -0.08043,0.04657 -0.249767,0.04657 -0.110067,0 -0.2286,0.0889 -0.118533,0.0889 -0.118533,0.173566 0,0.05927 -0.0381,0.09737 -0.05927,0.05927 -0.06773,0.2667 -0.0042,0.2032 0.04657,0.300567 0.0254,0.0508 0.0381,0.07197 0.01693,0.01693 0.03387,0.03387 0.02117,0.01693 0.05503,0.0085 0.0381,-0.0127 0.0762,-0.0254 0.0381,-0.0127 0.122767,-0.04657 0.131233,-0.0508 0.173566,-0.0508 0.04233,-0.0042 0.0762,0.02963 0.0635,0.0635 0.0254,0.1651 -0.03387,0.09737 -0.1397,0.160867 -0.118533,0.07197 -0.359833,0.07197 -0.237067,0 -0.359833,-0.07197 -0.127,-0.07197 -0.1778,-0.198967 -0.04657,-0.127 -0.04233,-0.385233 0,-0.1778 0.02117,-0.2794 0.02117,-0.1016 0.0762,-0.224367 0.194733,-0.410633 0.4826,-0.529166 z"
           style="font-style:normal;font-variant:normal;font-weight:normal;font-stretch:normal;font-size:4.23333359px;line-height:20.0000003%;font-family:ZachsSharpie;-inkscape-font-specification:ZachsSharpie;stroke-width:0.26458335px"
           id="path8471" />
        <path
           d="m 58.704198,73.093598 q 0.135467,-0.0042 0.245534,-0.02963 0.1143,-0.0254 0.156633,-0.04233 0.04657,-0.01693 0.09737,-0.0085 0.05503,0.0085 0.122766,0.05927 0.05927,0.0508 0.0762,0.143933 0.0127,0.1016 0.0254,0.681567 0.0085,0.664633 -0.0254,0.770466 -0.02963,0.09313 -0.143933,0.0889 -0.02963,0 -0.09313,-0.0085 -0.1778,-0.01693 -0.2032,0.02117 -0.03387,0.0508 -0.3683,0 -0.334434,-0.05503 -0.508,-0.135466 -0.09313,-0.0381 -0.2159,-0.156634 -0.0889,-0.08043 -0.105834,-0.135466 -0.01693,-0.05503 -0.01693,-0.245534 0,-0.169333 0.01693,-0.245533 0.01693,-0.08043 0.0762,-0.169333 0.1905,-0.3048 0.389467,-0.440267 0.198967,-0.135467 0.474133,-0.148167 z m 0.2159,0.423334 q -0.04657,-0.0254 -0.1778,-0.0381 -0.131233,-0.0127 -0.169333,0.0042 -0.08467,0.0381 -0.173567,0.110067 -0.0889,0.06773 -0.0889,0.09313 0,0.01693 -0.0762,0.135467 -0.07197,0.118533 -0.09313,0.220133 -0.01693,0.08043 -0.0042,0.122767 0.01693,0.0381 0.09313,0.110066 0.118533,0.105834 0.296333,0.131234 0.118534,0.02117 0.156634,0.0127 0.0381,-0.0127 0.0762,-0.07197 0.0889,-0.131233 0.1524,-0.465667 0.0635,-0.334433 0.0085,-0.364066 z"
           style="font-style:normal;font-variant:normal;font-weight:normal;font-stretch:normal;font-size:4.23333359px;line-height:20.0000003%;font-family:ZachsSharpie;-inkscape-font-specification:ZachsSharpie;stroke-width:0.26458335px"
           id="path8473" />
        <path
           d="m 59.580366,72.170732 q 0.07197,-0.05927 0.173567,-0.0635 0.1016,-0.0042 0.173567,0.0508 0.04657,0.03387 0.05927,0.198966 0.0127,0.1651 0.02963,0.842434 0.02963,1.401233 0.0127,1.502833 -0.0085,0.0635 -0.0508,0.08043 -0.02117,0.0085 -0.03387,0.0127 -0.0635,0.0381 -0.1016,0.0381 -0.03387,0 -0.09313,-0.02963 -0.09737,-0.0508 -0.118534,-0.105833 -0.0127,-0.03387 -0.04233,-1.1176 -0.02963,-1.083734 -0.05503,-1.1938 -0.02117,-0.1016 -0.01693,-0.135467 0.0085,-0.0381 0.0635,-0.08043 z"
           style="font-style:normal;font-variant:normal;font-weight:normal;font-stretch:normal;font-size:4.23333359px;line-height:20.0000003%;font-family:ZachsSharpie;-inkscape-font-specification:ZachsSharpie;stroke-width:0.26458335px"
           id="path8475" />
        <path
           d="m 60.22628,73.042798 q 0.156634,-0.0635 0.270934,0.0085 0.1143,0.06773 0.148166,0.249767 0.01693,0.08043 0.0762,0.300566 0.05927,0.2159 0.0762,0.309034 0.0254,0.1397 0.05503,0.1397 0.0508,0 0.2032,-0.245534 0.1524,-0.249766 0.1651,-0.3556 0.02117,-0.148166 0.07197,-0.1905 0.05927,-0.04657 0.224367,-0.0127 0.1651,0.02963 0.198967,0.09313 0.04233,0.08043 0.03387,0.1524 -0.0042,0.07197 -0.05503,0.1143 -0.04657,0.0381 -0.173567,0.224366 -0.122766,0.182034 -0.2159,0.351367 -0.0635,0.1143 -0.131233,0.3302 -0.0635,0.198967 -0.173567,0.3048 -0.105833,0.105833 -0.2159,0.08043 -0.09313,-0.02117 -0.182033,-0.118533 -0.08467,-0.09737 -0.08467,-0.1778 0,-0.05927 -0.0635,-0.258233 -0.0635,-0.2032 -0.08467,-0.372534 -0.01693,-0.1143 -0.06773,-0.249766 -0.04657,-0.135467 -0.09313,-0.232834 -0.04233,-0.1016 -0.07197,-0.194733 -0.02963,-0.09313 -0.0127,-0.156633 0.02117,-0.0635 0.1016,-0.09313 z"
           style="font-style:normal;font-variant:normal;font-weight:normal;font-stretch:normal;font-size:4.23333359px;line-height:20.0000003%;font-family:ZachsSharpie;-inkscape-font-specification:ZachsSharpie;stroke-width:0.26458335px"
           id="path8477" />
        <path
           d="m 61.942038,72.949665 q 0.07197,-0.05503 0.1651,-0.0381 0.09313,0.0127 0.173566,0.08467 0.03387,0.02963 0.04657,0.05927 0.0127,0.02963 0.0085,0.1016 0,0.06773 -0.0085,0.1524 -0.0042,0.08043 -0.01693,0.262467 -0.0085,0.182033 -0.0085,0.385233 0,0.3302 -0.03387,0.4191 -0.03387,0.0889 -0.160866,0.0889 -0.0635,0 -0.105834,-0.0085 -0.0381,-0.0085 -0.07197,-0.0254 -0.02963,-0.01693 -0.04233,-0.04657 -0.0127,-0.02963 -0.0254,-0.07197 -0.0085,-0.04657 -0.0085,-0.110066 0.0042,-0.06773 0.0042,-0.1524 0,-0.08467 0.0042,-0.1905 0.0085,-0.110067 0.0042,-0.245534 0,-0.135466 0,-0.300566 -0.0042,-0.211667 0.0042,-0.2667 0.0127,-0.05927 0.07197,-0.09737 z m 0.08467,-0.833967 q 0.1143,-0.04657 0.173567,-0.04233 0.05927,0 0.1397,0.0635 0.0889,0.06773 0.09737,0.237067 0.0085,0.1651 -0.07197,0.254 -0.05503,0.05927 -0.1397,0.07197 -0.08467,0.0127 -0.1651,-0.01693 -0.0762,-0.03387 -0.1397,-0.1016 -0.0635,-0.07197 -0.08043,-0.160867 -0.02117,-0.118533 0.01693,-0.182033 0.04233,-0.0635 0.169333,-0.122767 z"
           style="font-style:normal;font-variant:normal;font-weight:normal;font-stretch:normal;font-size:4.23333359px;line-height:20.0000003%;font-family:ZachsSharpie;-inkscape-font-specification:ZachsSharpie;stroke-width:0.26458335px"
           id="path8479" />
        <path
           d="m 62.687567,73.169798 q 0.0762,-0.09313 0.275167,-0.01693 0.05927,0.02117 0.0762,0.05503 0.02117,0.02963 0.02117,0.09313 0,0.09313 0.04657,0.110066 0.04657,0.01693 0.105834,-0.05503 0.04657,-0.0508 0.2413,-0.143933 0.194733,-0.09737 0.258233,-0.09737 0.0508,0 0.1524,0.05927 0.105833,0.05927 0.143933,0.110066 0.0381,0.05503 0.0254,0.385234 -0.0127,0.3302 -0.05503,0.440266 -0.04657,0.105834 -0.04233,0.224367 0.0042,0.118533 0.0127,0.173567 0.0127,0.05503 -0.04657,0.148166 -0.05503,0.05927 -0.160867,0.07197 -0.105833,0.0085 -0.194733,-0.0381 -0.07197,-0.04233 -0.07197,-0.198967 0,-0.160866 0.07197,-0.3937 0.05503,-0.1778 0.06773,-0.321733 0.01693,-0.148167 -0.01693,-0.182033 -0.02963,-0.03387 -0.1016,0.02117 -0.07197,0.05503 -0.1397,0.1651 -0.296333,0.465667 -0.296333,0.626534 0,0.09313 -0.09313,0.207433 -0.09313,0.1143 -0.173566,0.1143 -0.0889,0 -0.173567,-0.06773 -0.08043,-0.07197 -0.09737,-0.160867 -0.0127,-0.07197 0.0042,-0.169333 0.02117,-0.09737 0.05503,-0.287867 0.0381,-0.1905 0.04657,-0.4318 0.0127,-0.385233 0.05927,-0.440267 z"
           style="font-style:normal;font-variant:normal;font-weight:normal;font-stretch:normal;font-size:4.23333359px;line-height:20.0000003%;font-family:ZachsSharpie;-inkscape-font-specification:ZachsSharpie;stroke-width:0.26458335px"
           id="path8481" />
        <path
           d="m 65.167904,72.704132 q 0.0508,0 0.0762,-0.0085 0.02963,-0.0085 0.04657,-0.02117 0.02117,-0.0127 0.0762,-0.0381 0.05927,-0.02963 0.1397,-0.05927 0.220134,-0.06773 0.402167,-0.0508 0.186267,0.0127 0.338667,0.09737 0.1524,0.08467 0.254,0.186267 0.1016,0.1016 0.148166,0.211667 0.08043,0.186266 0.1143,0.4953 0.0381,0.309033 -0.01693,0.3683 -0.02963,0.03387 -0.110067,0.232833 -0.0635,0.1651 -0.182033,0.3302 -0.1143,0.160867 -0.198967,0.207433 -0.07197,0.0381 -0.249766,0.06773 -0.1143,0.02117 -0.173567,0.0127 -0.05927,-0.0127 -0.1651,-0.07197 l -0.160867,-0.09737 -0.118533,0.09313 q -0.232833,0.173566 -0.4064,0.08467 -0.224367,-0.1143 -0.224367,-0.364066 0,-0.135467 -0.03387,-0.160867 -0.04233,-0.0254 -0.0381,-0.198967 0.0042,-0.173566 0.0508,-0.258233 0.04657,-0.0889 0.1905,-0.2286 0.148166,-0.1397 0.249766,-0.194733 0.08043,-0.04233 0.169334,-0.118534 0.0889,-0.08043 0.0889,-0.110066 0,-0.03387 -0.0889,-0.03387 -0.09737,0 -0.2794,0.143933 -0.182034,0.1397 -0.2921,0.300567 -0.1143,0.173567 -0.186267,0.4572 -0.07197,0.283633 -0.0254,0.385233 0.0254,0.0508 0.05927,0.220134 0.03387,0.1651 0.08043,0.2159 0.05503,0.0635 0.05503,0.122766 0,0.04233 0.131234,0.169334 0.131233,0.127 0.232833,0.186266 0.127,0.07197 0.381,0.03387 0.254,-0.0381 0.372533,-0.148167 0.0762,-0.06773 0.135467,-0.05927 0.05927,0.0127 0.1524,0.110066 l 0.110067,0.110067 -0.0762,0.1016 q -0.07197,0.09737 -0.143934,0.127 -0.07197,0.03387 -0.338666,0.0889 -0.2159,0.04657 -0.287867,0.04233 -0.07197,0 -0.237067,-0.05503 -0.283633,-0.09313 -0.516466,-0.245533 -0.2286,-0.148167 -0.321734,-0.300567 -0.09313,-0.160867 -0.160866,-0.474133 -0.06773,-0.3175 -0.06773,-0.592667 0,-0.182033 0.0127,-0.270933 0.01693,-0.0889 0.0381,-0.122767 0.02117,-0.0381 0.0889,-0.135467 0.07197,-0.1016 0.1397,-0.232833 0.0254,-0.04657 0.09313,-0.131233 0.07197,-0.08467 0.173566,-0.182034 0.105834,-0.09737 0.2413,-0.1651 0.135467,-0.07197 0.258234,-0.07197 z m 0.956733,0.3429 q -0.105833,-0.122767 -0.182033,-0.143934 -0.07197,-0.02117 -0.2159,0.02963 -0.105834,0.0381 -0.1016,0.09737 0.0085,0.05503 0.122766,0.105834 0.110067,0.04233 0.143934,0.08467 0.0381,0.0381 0.0508,0.135467 0.01693,0.09313 -0.0085,0.2667 -0.0254,0.321733 -0.05927,0.3429 -0.0381,0.02117 -0.02963,0.127 0.0085,0.105833 0.0508,0.143933 0.1016,0.08043 0.2286,-0.105833 0.131233,-0.1905 0.194733,-0.427567 0.06773,-0.237066 0.01693,-0.270933 -0.02117,-0.0127 -0.03387,-0.05503 -0.0085,-0.04657 -0.0508,-0.135467 -0.0381,-0.0889 -0.127,-0.194733 z m -0.791633,0.994833 q 0.08467,-0.169333 0.02963,-0.194733 -0.04233,-0.01693 -0.131233,0.1016 -0.135467,0.1778 -0.08467,0.237066 0.0127,0.01693 0.0508,0.0085 0.02963,-0.0042 0.06773,-0.04657 0.0381,-0.04657 0.06773,-0.105833 z"
           style="font-style:normal;font-variant:normal;font-weight:normal;font-stretch:normal;font-size:4.23333359px;line-height:20.0000003%;font-family:ZachsSharpie;-inkscape-font-specification:ZachsSharpie;stroke-width:0.26458335px"
           id="path8483" />
        <path
           d="m 67.680123,72.945432 q 0.06773,-0.0127 0.1016,-0.02963 0.0381,-0.02117 0.0508,-0.03387 0.0127,-0.0127 0.08043,-0.02117 0.06773,-0.0085 0.2032,-0.0042 0.287867,0 0.376767,0.08467 0.0889,0.08467 0.148166,0.4191 0.09737,0.541867 0.122767,0.7874 0.0254,0.2413 0.02117,0.579967 l -0.0042,0.465667 -0.122766,0.1016 q -0.1016,0.08467 -0.173567,0.105833 -0.07197,0.02117 -0.1524,0.0762 -0.118533,0.0889 -0.427567,0.09313 -0.309033,0.0042 -0.423333,-0.08043 -0.110067,-0.0762 -0.207433,-0.1016 -0.1016,-0.0254 -0.2032,-0.156633 -0.09737,-0.127 -0.08467,-0.211667 0.01693,-0.1016 0.135467,-0.09737 0.118533,0 0.321733,0.09737 0.182033,0.09313 0.3048,0.09737 0.122767,0.0085 0.347133,-0.0508 0.06773,-0.01693 0.122767,-0.0508 0.05503,-0.03387 0.07197,-0.05927 0.03387,-0.06773 0.0508,-0.262467 0.01693,-0.194733 -0.0127,-0.211666 -0.02963,-0.01693 -0.122767,0.05503 -0.110067,0.08467 -0.347133,0.08043 -0.237067,-0.0042 -0.410634,-0.09737 -0.258233,-0.135467 -0.4191,-0.300567 -0.160866,-0.169333 -0.160866,-0.300567 0,-0.05503 0.118533,-0.300566 0.110067,-0.220134 0.325967,-0.4318 0.220133,-0.2159 0.3683,-0.2413 z m 0.3175,0.440266 q -0.04657,-0.03387 -0.08467,-0.0381 -0.03387,-0.0042 -0.127,0.02117 -0.09313,0.02117 -0.232833,0.169333 -0.135467,0.148167 -0.169334,0.258234 -0.0254,0.09313 -0.02117,0.131233 0.0042,0.0381 0.0508,0.0889 0.07197,0.08467 0.232833,0.156633 0.1651,0.06773 0.237067,0.04657 0.0762,-0.0254 0.173566,-0.237067 0.0635,-0.148166 0.07197,-0.2032 0.0085,-0.05927 -0.02117,-0.1778 -0.04657,-0.169333 -0.110066,-0.2159 z"
           style="font-style:normal;font-variant:normal;font-weight:normal;font-stretch:normal;font-size:4.23333359px;line-height:20.0000003%;font-family:ZachsSharpie;-inkscape-font-specification:ZachsSharpie;stroke-width:0.26458335px"
           id="path8485" />
        <path
           d="m 70.459968,73.351832 q 0.186266,-0.05927 0.309033,-0.02117 0.127,0.03387 0.2159,0.1778 0.04657,0.0762 0.05927,0.211667 0.01693,0.131233 0.02117,0.5461 0.0127,0.643466 -0.02963,0.6858 -0.04233,0.04233 -0.182033,0.04657 -0.135467,0 -0.182034,-0.04233 -0.04233,-0.04657 -0.03387,-0.5207 0.01693,-0.626533 -0.08043,-0.656167 -0.0254,-0.0085 -0.05927,0.0085 -0.08467,0.04657 -0.160867,0.2413 -0.0762,0.194733 -0.1016,0.436033 -0.0254,0.220134 -0.05503,0.3556 -0.02963,0.135467 -0.06773,0.1905 -0.03387,0.05503 -0.05927,0.06773 -0.02117,0.0127 -0.0635,0.0127 -0.0085,0 -0.0127,0.0042 -0.118534,0.0085 -0.211667,-0.06773 -0.09313,-0.08043 -0.09313,-0.186267 0,-0.09737 0.07197,-0.491067 0.08043,-0.436033 0.0085,-0.452966 -0.0254,-0.0042 -0.06773,0.0254 -0.143934,0.09313 -0.2413,0.579966 -0.04657,0.2286 -0.0762,0.2921 -0.0254,0.05927 -0.110067,0.118534 -0.07197,0.0508 -0.1143,0.05927 -0.0381,0.0085 -0.09313,-0.01693 -0.110067,-0.0508 -0.156634,-0.143933 -0.04657,-0.09737 -0.0127,-0.207434 0.156634,-0.491066 0.156634,-0.859366 0,-0.283634 0.05927,-0.334434 0.05927,-0.0508 0.4699,-0.04233 0.414867,0.0085 0.516467,0.0635 0.05503,0.0254 0.08467,0.02963 0.03387,0.0042 0.05503,-0.0085 0.0254,-0.0127 0.0889,-0.04233 0.06773,-0.03387 0.148167,-0.05927 z"
           style="font-style:normal;font-variant:normal;font-weight:normal;font-stretch:normal;font-size:4.23333359px;line-height:20.0000003%;font-family:ZachsSharpie;-inkscape-font-specification:ZachsSharpie;stroke-width:0.26458335px"
           id="path8487" />
        <path
           d="m 72.107,73.093598 q 0.135466,-0.0042 0.245533,-0.02963 0.1143,-0.0254 0.156633,-0.04233 0.04657,-0.01693 0.09737,-0.0085 0.05503,0.0085 0.122767,0.05927 0.05927,0.0508 0.0762,0.143933 0.0127,0.1016 0.0254,0.681567 0.0085,0.664633 -0.0254,0.770466 -0.02963,0.09313 -0.143934,0.0889 -0.02963,0 -0.09313,-0.0085 -0.1778,-0.01693 -0.2032,0.02117 -0.03387,0.0508 -0.3683,0 -0.334433,-0.05503 -0.508,-0.135466 -0.09313,-0.0381 -0.2159,-0.156634 -0.0889,-0.08043 -0.105833,-0.135466 -0.01693,-0.05503 -0.01693,-0.245534 0,-0.169333 0.01693,-0.245533 0.01693,-0.08043 0.0762,-0.169333 0.1905,-0.3048 0.389466,-0.440267 0.198967,-0.135467 0.474134,-0.148167 z m 0.2159,0.423334 q -0.04657,-0.0254 -0.1778,-0.0381 -0.131234,-0.0127 -0.169334,0.0042 -0.08467,0.0381 -0.173566,0.110067 -0.0889,0.06773 -0.0889,0.09313 0,0.01693 -0.0762,0.135467 -0.07197,0.118533 -0.09313,0.220133 -0.01693,0.08043 -0.0042,0.122767 0.01693,0.0381 0.09313,0.110066 0.118534,0.105834 0.296334,0.131234 0.118533,0.02117 0.156633,0.0127 0.0381,-0.0127 0.0762,-0.07197 0.0889,-0.131233 0.1524,-0.465667 0.0635,-0.334433 0.0085,-0.364066 z"
           style="font-style:normal;font-variant:normal;font-weight:normal;font-stretch:normal;font-size:4.23333359px;line-height:20.0000003%;font-family:ZachsSharpie;-inkscape-font-specification:ZachsSharpie;stroke-width:0.26458335px"
           id="path8489" />
        <path
           d="m 73.029733,72.949665 q 0.07197,-0.05503 0.1651,-0.0381 0.09313,0.0127 0.173566,0.08467 0.03387,0.02963 0.04657,0.05927 0.0127,0.02963 0.0085,0.1016 0,0.06773 -0.0085,0.1524 -0.0042,0.08043 -0.01693,0.262467 -0.0085,0.182033 -0.0085,0.385233 0,0.3302 -0.03387,0.4191 -0.03387,0.0889 -0.160866,0.0889 -0.0635,0 -0.105834,-0.0085 -0.0381,-0.0085 -0.07197,-0.0254 -0.02963,-0.01693 -0.04233,-0.04657 -0.0127,-0.02963 -0.0254,-0.07197 -0.0085,-0.04657 -0.0085,-0.110066 0.0042,-0.06773 0.0042,-0.1524 0,-0.08467 0.0042,-0.1905 0.0085,-0.110067 0.0042,-0.245534 0,-0.135466 0,-0.300566 -0.0042,-0.211667 0.0042,-0.2667 0.0127,-0.05927 0.07197,-0.09737 z m 0.08467,-0.833967 q 0.1143,-0.04657 0.173567,-0.04233 0.05927,0 0.1397,0.0635 0.0889,0.06773 0.09737,0.237067 0.0085,0.1651 -0.07197,0.254 -0.05503,0.05927 -0.1397,0.07197 -0.08467,0.0127 -0.1651,-0.01693 -0.0762,-0.03387 -0.1397,-0.1016 -0.0635,-0.07197 -0.08043,-0.160867 -0.02117,-0.118533 0.01693,-0.182033 0.04233,-0.0635 0.169333,-0.122767 z"
           style="font-style:normal;font-variant:normal;font-weight:normal;font-stretch:normal;font-size:4.23333359px;line-height:20.0000003%;font-family:ZachsSharpie;-inkscape-font-specification:ZachsSharpie;stroke-width:0.26458335px"
           id="path8491" />
        <path
           d="m 73.66943,72.170732 q 0.07197,-0.05927 0.173567,-0.0635 0.1016,-0.0042 0.173566,0.0508 0.04657,0.03387 0.05927,0.198966 0.0127,0.1651 0.02963,0.842434 0.02963,1.401233 0.0127,1.502833 -0.0085,0.0635 -0.0508,0.08043 -0.02117,0.0085 -0.03387,0.0127 -0.0635,0.0381 -0.1016,0.0381 -0.03387,0 -0.09313,-0.02963 -0.09737,-0.0508 -0.118533,-0.105833 -0.0127,-0.03387 -0.04233,-1.1176 -0.02963,-1.083734 -0.05503,-1.1938 -0.02117,-0.1016 -0.01693,-0.135467 0.0085,-0.0381 0.0635,-0.08043 z"
           style="font-style:normal;font-variant:normal;font-weight:normal;font-stretch:normal;font-size:4.23333359px;line-height:20.0000003%;font-family:ZachsSharpie;-inkscape-font-specification:ZachsSharpie;stroke-width:0.26458335px"
           id="path8493" />
        <path
           d="m 74.273011,74.270465 q 0.0635,-0.0762 0.211666,-0.06773 0.1524,0.0042 0.237067,0.08043 0.0889,0.0889 0.08043,0.198967 -0.0042,0.110066 -0.1016,0.207433 -0.211666,0.207433 -0.397933,0.02117 -0.08467,-0.08043 -0.09313,-0.220134 -0.0085,-0.143933 0.0635,-0.220133 z"
           style="font-style:normal;font-variant:normal;font-weight:normal;font-stretch:normal;font-size:4.23333359px;line-height:20.0000003%;font-family:ZachsSharpie;-inkscape-font-specification:ZachsSharpie;stroke-width:0.26458335px"
           id="path8495" />
        <path
           d="m 75.467473,73.148632 q 0.245533,-0.1016 0.440267,-0.0508 0.194733,0.04657 0.194733,0.2032 0,0.09737 -0.08043,0.143933 -0.08043,0.04657 -0.249767,0.04657 -0.110067,0 -0.2286,0.0889 -0.118533,0.0889 -0.118533,0.173566 0,0.05927 -0.0381,0.09737 -0.05927,0.05927 -0.06773,0.2667 -0.0042,0.2032 0.04657,0.300567 0.0254,0.0508 0.0381,0.07197 0.01693,0.01693 0.03387,0.03387 0.02117,0.01693 0.05503,0.0085 0.0381,-0.0127 0.0762,-0.0254 0.0381,-0.0127 0.122767,-0.04657 0.131233,-0.0508 0.173566,-0.0508 0.04233,-0.0042 0.0762,0.02963 0.0635,0.0635 0.0254,0.1651 -0.03387,0.09737 -0.1397,0.160867 -0.118533,0.07197 -0.359833,0.07197 -0.237067,0 -0.359833,-0.07197 -0.127,-0.07197 -0.1778,-0.198967 -0.04657,-0.127 -0.04233,-0.385233 0,-0.1778 0.02117,-0.2794 0.02117,-0.1016 0.0762,-0.224367 0.194733,-0.410633 0.4826,-0.529166 z"
           style="font-style:normal;font-variant:normal;font-weight:normal;font-stretch:normal;font-size:4.23333359px;line-height:20.0000003%;font-family:ZachsSharpie;-inkscape-font-specification:ZachsSharpie;stroke-width:0.26458335px"
           id="path8497" />
        <path
           d="m 76.951851,72.780332 q 0.156633,-0.0254 0.2921,-0.0085 0.1397,0.01693 0.194733,0.0635 0.08467,0.07197 0.262467,0.474133 0.1143,0.2667 0.04657,0.550334 -0.0635,0.283633 -0.296333,0.508 -0.182033,0.173566 -0.516467,0.194733 -0.3302,0.02117 -0.541866,-0.131233 -0.198967,-0.143934 -0.207434,-0.656167 -0.0085,-0.448733 0.237067,-0.706967 0.122767,-0.135466 0.2413,-0.198966 0.122767,-0.06773 0.287867,-0.0889 z m 0.334433,0.592666 q -0.05503,-0.0762 -0.09313,-0.09313 -0.03387,-0.01693 -0.0635,0 -0.0254,0.01693 -0.105834,0.04657 -0.08043,0.0254 -0.186266,0.02963 -0.0889,0 -0.118534,0.0254 -0.02963,0.0254 -0.0635,0.127 -0.0508,0.1524 -0.03387,0.376767 0.02117,0.220133 0.0889,0.2667 0.118533,0.0889 0.275166,0.02963 0.160867,-0.0635 0.275167,-0.237067 0.09313,-0.1397 0.09737,-0.296333 0.0085,-0.156633 -0.07197,-0.275167 z"
           style="font-style:normal;font-variant:normal;font-weight:normal;font-stretch:normal;font-size:4.23333359px;line-height:20.0000003%;font-family:ZachsSharpie;-inkscape-font-specification:ZachsSharpie;stroke-width:0.26458335px"
           id="path8499" />
        <path
           d="m 79.447534,73.351832 q 0.186266,-0.05927 0.309033,-0.02117 0.127,0.03387 0.2159,0.1778 0.04657,0.0762 0.05927,0.211667 0.01693,0.131233 0.02117,0.5461 0.0127,0.643466 -0.02963,0.6858 -0.04233,0.04233 -0.182033,0.04657 -0.135467,0 -0.182034,-0.04233 -0.04233,-0.04657 -0.03387,-0.5207 0.01693,-0.626533 -0.08043,-0.656167 -0.0254,-0.0085 -0.05927,0.0085 -0.08467,0.04657 -0.160867,0.2413 -0.0762,0.194733 -0.1016,0.436033 -0.0254,0.220134 -0.05503,0.3556 -0.02963,0.135467 -0.06773,0.1905 -0.03387,0.05503 -0.05927,0.06773 -0.02117,0.0127 -0.0635,0.0127 -0.0085,0 -0.0127,0.0042 -0.118534,0.0085 -0.211667,-0.06773 -0.09313,-0.08043 -0.09313,-0.186267 0,-0.09737 0.07197,-0.491067 0.08043,-0.436033 0.0085,-0.452966 -0.0254,-0.0042 -0.06773,0.0254 -0.143934,0.09313 -0.2413,0.579966 -0.04657,0.2286 -0.0762,0.2921 -0.0254,0.05927 -0.110067,0.118534 -0.07197,0.0508 -0.1143,0.05927 -0.0381,0.0085 -0.09313,-0.01693 -0.110067,-0.0508 -0.156634,-0.143933 -0.04657,-0.09737 -0.0127,-0.207434 0.156634,-0.491066 0.156634,-0.859366 0,-0.283634 0.05927,-0.334434 0.05927,-0.0508 0.4699,-0.04233 0.414867,0.0085 0.516467,0.0635 0.05503,0.0254 0.08467,0.02963 0.03387,0.0042 0.05503,-0.0085 0.0254,-0.0127 0.0889,-0.04233 0.06773,-0.03387 0.148167,-0.05927 z"
           style="font-style:normal;font-variant:normal;font-weight:normal;font-stretch:normal;font-size:4.23333359px;line-height:20.0000003%;font-family:ZachsSharpie;-inkscape-font-specification:ZachsSharpie;stroke-width:0.26458335px"
           id="path8501" />
      </g>
      <text
         xml:space="preserve"
         style="font-style:normal;font-weight:normal;font-size:10.58333302px;line-height:125%;font-family:sans-serif;letter-spacing:0px;word-spacing:0px;fill:#000000;fill-opacity:1;stroke:none;stroke-width:0.26458332px;stroke-linecap:butt;stroke-linejoin:miter;stroke-opacity:1"
         x="34.163818"
         y="62.976807"
         id="text8461"><tspan
           sodipodi:role="line"
           id="tspan8459"
           x="34.163818"
           y="72.340576"
           style="stroke-width:0.26458332px" /></text>
    </g>
  </g>
</svg>
