<?xml version="1.0" encoding="utf-8" standalone="no"?>
<svg width="500" height="110" xmlns="http://www.w3.org/2000/svg"><path stroke-width="1" fill="none" stroke="#999999" stroke-dasharray="none" font-family="Arial" font-size="10pt" font-weight="normal" font-style="normal" d="M10 50L510 50"></path><path stroke-width="1" fill="none" stroke="#999999" stroke-dasharray="none" font-family="Arial" font-size="10pt" font-weight="normal" font-style="normal" d="M10 60L510 60"></path><path stroke-width="1" fill="none" stroke="#999999" stroke-dasharray="none" font-family="Arial" font-size="10pt" font-weight="normal" font-style="normal" d="M10 70L510 70"></path><path stroke-width="1" fill="none" stroke="#999999" stroke-dasharray="none" font-family="Arial" font-size="10pt" font-weight="normal" font-style="normal" d="M10 80L510 80"></path><path stroke-width="1" fill="none" stroke="#999999" stroke-dasharray="none" font-family="Arial" font-size="10pt" font-weight="normal" font-style="normal" d="M10 90L510 90"></path><rect stroke-width="0.3" fill="black" stroke="black" stroke-dasharray="none" font-family="Arial" font-size="10pt" font-weight="normal" font-style="normal" x="510" y="49.5" width="1" height="41"></rect><path stroke-width="0.3" fill="black" stroke="none" stroke-dasharray="none" font-family="Arial" font-size="10pt" font-weight="normal" font-style="normal" x="510" y="49.5" width="1" height="41" d="M15 80M29.0544 36.8288C29.112000000000002 36.800000000000004,29.1696 36.800000000000004,29.256 36.800000000000004C29.601599999999998 36.800000000000004,30.0048 37.088,30.5808 37.808C32.9136 40.4864,34.5552 45.152,34.5552 48.9536C34.5552 49.241600000000005,34.4976 49.472,34.4976 49.760000000000005C34.2384 54.2816,32.3952 57.9968,28.7376 61.510400000000004L27.7584 62.4608L27.412799999999997 62.8352L27.412799999999997 62.9504L27.6144 63.8144L27.9312 65.3696L28.247999999999998 66.8096C28.68 68.768,28.852800000000002 69.776,28.852800000000002 69.776C28.852800000000002 69.776,28.852800000000002 69.776,28.852800000000002 69.776C28.852800000000002 69.776,28.968 69.776,29.112000000000002 69.74719999999999C29.256 69.74719999999999,29.7168 69.6896,30.206400000000002 69.6896C30.552 69.6896,30.897599999999997 69.74719999999999,31.0704 69.74719999999999C35.1312 70.2656,38.270399999999995 73.1744,39.1632 77.264C39.336 77.9264,39.3936 78.6464,39.3936 79.3664C39.3936 83.2544,37.0608 86.9696,33.172799999999995 88.7264C32.9424 88.8704,32.855999999999995 88.89920000000001,32.855999999999995 88.89920000000001L32.855999999999995 88.928C32.855999999999995 88.928,33.028800000000004 89.5904,33.172799999999995 90.3392L33.6048 92.528L34.007999999999996 94.2848C34.2384 95.408,34.3536 96.2144,34.3536 96.9344C34.3536 97.568,34.2672 98.144,34.1232 98.8064C33.144 102.8096,29.6592 105.2,26.0304 105.2C24.244799999999998 105.2,22.401600000000002 104.624,20.788800000000002 103.328C19.3488 102.11840000000001,18.7152 101.024,18.7152 99.584C18.7152 97.0496,20.759999999999998 95.264,22.891199999999998 95.264C23.64 95.264,24.3888 95.4944,25.108800000000002 95.9264C26.3184 96.7616,26.8656 98.0288,26.8656 99.2672C26.8656 101.168,25.540799999999997 103.03999999999999,23.2656 103.184L23.0352 103.184L23.208 103.2992C24.1584 103.7024,25.108800000000002 103.904,26.0304 103.904C28.3632 103.904,30.552 102.72319999999999,31.8768 100.6784C32.6256 99.5264,33.028800000000004 98.1728,33.028800000000004 96.8192C33.028800000000004 96.3008,32.9424 95.7824,32.827200000000005 95.2064C32.827200000000005 95.1488,32.7408 94.688,32.6256 94.256C31.992 91.1456,31.6176 89.3312,31.6176 89.3312C31.6176 89.3312,31.6176 89.3312,31.6176 89.3312C31.56 89.3312,31.4448 89.3312,31.3584 89.3888C31.0704 89.4464,30.465600000000002 89.5904,30.206400000000002 89.6192C29.5728 89.7056,28.968 89.7344,28.392 89.7344C22.7472 89.7344,17.5056 85.9328,15.6912 80.3168C15.2304 78.8192,14.9712 77.3216,14.9712 75.824C14.9712 72.8288,15.9216 69.8912,17.7648 67.2704C19.7808 64.4192,21.7968 61.971199999999996,24.273600000000002 59.436800000000005L25.1376 58.544L24.936 57.4784L24.5616 55.7216L24.072 53.4752C23.927999999999997 52.64,23.755200000000002 51.833600000000004,23.726399999999998 51.6608C23.5824 50.7104,23.496000000000002 49.7888,23.496000000000002 48.8384C23.496000000000002 45.2096,24.6768 41.7248,26.894399999999997 38.931200000000004C27.5568 38.0672,28.7376 36.9152,29.0544 36.8288M30.8112 42.5312C30.7536 42.5312,30.6672 42.5312,30.5808 42.5312C29.4 42.5312,27.8736 43.6256,26.8368 45.2384C25.7712 46.8224,25.224 48.924800000000005,25.224 51.0848C25.224 51.6608,25.2528 52.2656,25.339199999999998 52.870400000000004C25.4256 53.302400000000006,25.4544 53.5904,25.6848 54.6272L26.088 56.4416C26.2032 56.9888,26.2896 57.4208,26.2896 57.4784L26.2896 57.4784C26.3184 57.4784,27.211199999999998 56.4992,27.499200000000002 56.1536C30.379199999999997 52.8992,32.1072 49.472,32.4816 46.448C32.510400000000004 46.160000000000004,32.510400000000004 45.9296,32.510400000000004 45.641600000000004C32.510400000000004 44.7488,32.3952 43.8848,32.1936 43.424C31.9632 42.9632,31.4448 42.5888,30.8112 42.5312M26.4624 64.7936C26.4048 64.3904,26.3184 64.0736,26.3184 64.016C26.3184 64.016,26.3184 64.016,26.2896 64.016C26.232 64.016,24.9936 65.456,24.1296 66.464C22.660800000000002 68.2496,21.1056 70.3808,20.472 71.4176C19.2624 73.4624,18.6576 75.7376,18.6576 77.984C18.6576 79.4528,18.9456 80.864,19.464 82.2176C21.019199999999998 86.2208,24.5904 88.7264,28.4784 88.7264C28.9392 88.7264,29.4576 88.6976,29.9472 88.6112C30.5808 88.496,31.3584 88.2656,31.3584 88.1792L31.3584 88.1792C31.3584 88.1792,31.3008 87.8912,31.2144 87.5744L30.379199999999997 83.456L29.7168 80.3744L29.284799999999997 78.2432L28.823999999999998 76.1696C28.593600000000002 74.9312,28.507199999999997 74.6144,28.507199999999997 74.6144C28.507199999999997 74.6144,28.507199999999997 74.5856,28.4784 74.5856C28.3056 74.5856,27.384 75.0464,26.980800000000002 75.3344C25.4832 76.3712,24.7056 78.0128,24.7056 79.6256C24.7056 81.152,25.4544 82.6784,26.894399999999997 83.5712C27.211199999999998 83.7728,27.3264 83.9456,27.3264 84.1472C27.3264 84.176,27.3264 84.2624,27.3264 84.2912C27.2688 84.6368,27.0672 84.7808,26.7792 84.7808C26.664 84.7808,26.52 84.752,26.3472 84.6656C23.6976 83.5136,21.912 80.7776,21.912 77.7824L21.912 77.7824C21.912 74.3264,24.072 71.3312,27.384 70.1504L27.5568 70.0928L27.2688 68.6528L26.4624 64.7936M30.7824 74.4128C30.552 74.384,30.3216 74.384,30.1488 74.384C30.0912 74.384,30.0048 74.384,29.9472 74.384L29.8032 74.384L29.9184 74.9024L30.5232 77.7248L30.897599999999997 79.568L31.3008 81.3824L32.1072 85.3856L32.424 86.912C32.5392 87.3152,32.5968 87.6608,32.6256 87.6608C32.6256 87.6608,32.6256 87.6608,32.6256 87.6608C32.654399999999995 87.6608,33.144 87.3728,33.4608 87.1424C34.9296 86.1056,36.024 84.4928,36.4272 82.8224C36.571200000000005 82.2752,36.6288 81.6992,36.6288 81.152C36.6288 77.8112,34.152 74.7872,30.7824 74.4128"></path><g class="vf-stavenote" id="vf-auto2705"><g class="vf-note" pointer-events="bounding-box"><g class="vf-stem" pointer-events="bounding-box"><path stroke-width="1.5" fill="none" stroke="black" stroke-dasharray="none" font-family="Arial" font-size="10pt" font-weight="normal" font-style="normal" x="510" y="49.5" width="1" height="41" d="M62.690639999999995 70L62.690639999999995 35"></path></g><g class="vf-notehead" pointer-events="bounding-box"><path stroke-width="0.3" fill="black" stroke="none" stroke-dasharray="none" font-family="Arial" font-size="10pt" font-weight="normal" font-style="normal" x="510" y="49.5" width="1" height="41" d="M51.422399999999996 70M58.77936 64.77712C58.891679999999994 64.77712,59.060159999999996 64.77712,59.08824 64.77712C59.08824 64.77712,59.116319999999995 64.77712,59.116319999999995 64.77712C59.116319999999995 64.77712,59.2848 64.77712,59.4252 64.77712C61.9524 64.91752,63.440639999999995 66.57424,63.440639999999995 68.65216C63.440639999999995 69.66304,63.10368 70.81432,62.26128 71.90944C60.66072 74.0716,58.049279999999996 75.25096,55.7748 75.25096C54.005759999999995 75.25096,52.489439999999995 74.54896,51.759359999999994 73.11688C51.53471999999999 72.55528,51.422399999999996 72.02176,51.422399999999996 71.43208C51.422399999999996 68.37136,54.84815999999999 64.97368,58.77936 64.77712"></path></g><g class="vf-flag" pointer-events="bounding-box"><path stroke-width="0.3" fill="black" stroke="none" stroke-dasharray="none" font-family="Arial" font-size="10pt" font-weight="normal" font-style="normal" x="510" y="49.5" width="1" height="41" d="M62.690639999999995 33M62.01671999999999 37.52088L62.01671999999999 33.1404L62.129039999999996 33.1404C62.43792 33.1404,62.634479999999996 33.33696,62.690639999999995 33.67392C63.280319999999996 36.48192,65.04936 39.54264,67.49231999999999 41.8452C70.21607999999999 44.40048,71.592 47.91048,71.592 51.5328C71.592 54.958560000000006,70.38456 58.52472,67.9416 61.47312C67.5204 62.03472,67.49231999999999 62.03472,67.21152 62.03472C66.87456 62.03472,66.64992 61.782,66.64992 61.445040000000006C66.64992 61.19232,66.678 61.136160000000004,66.9588 60.82728C69.09288 58.24392,70.15992 55.12704,70.15992 52.15056C70.15992 49.51104,69.31752 46.98384,67.57656 45.0744C66.50952 43.89504,64.54392 42.77184,62.044799999999995 41.90136C62.044799999999995 41.87328,62.01671999999999 41.0028,62.01671999999999 37.52088"></path></g></g><g class="vf-modifiers"><path stroke-width="0.3" fill="black" stroke="none" stroke-dasharray="none" font-family="Arial" font-size="10pt" font-weight="normal" font-style="normal" x="510" y="49.5" width="1" height="41" d="M80.01592 65 A2 2 0 0 0 76.01592 65M0 0M76.01592 65 A2 2 0 0 0 80.01592 65M0 0"></path></g></g><g class="vf-stavenote" id="vf-auto2716"><g class="vf-note" pointer-events="bounding-box"><g class="vf-stem" pointer-events="bounding-box"><path stroke-width="1.5" fill="none" stroke="black" stroke-dasharray="none" font-family="Arial" font-size="10pt" font-weight="normal" font-style="normal" x="510" y="49.5" width="1" height="41" d="M183.3396 75L183.3396 40"></path></g><g class="vf-notehead" pointer-events="bounding-box"><path stroke-width="0.3" fill="black" stroke="none" stroke-dasharray="none" font-family="Arial" font-size="10pt" font-weight="normal" font-style="normal" x="510" y="49.5" width="1" height="41" d="M172.07136 75M179.42831999999999 69.77712C179.54064 69.77712,179.70911999999998 69.77712,179.7372 69.77712C179.7372 69.77712,179.76528 69.77712,179.76528 69.77712C179.76528 69.77712,179.93376 69.77712,180.07416 69.77712C182.60136 69.91752,184.0896 71.57424,184.0896 73.65216C184.0896 74.66304,183.75263999999999 75.81432,182.91024 76.90944C181.30968 79.0716,178.69824 80.25096,176.42376 80.25096C174.65472 80.25096,173.1384 79.54896,172.40832 78.11688C172.18368 77.55528,172.07136 77.02176,172.07136 76.43208C172.07136 73.37136,175.49712 69.97368,179.42831999999999 69.77712"></path></g><g class="vf-flag" pointer-events="bounding-box"><path stroke-width="0.3" fill="black" stroke="none" stroke-dasharray="none" font-family="Arial" font-size="10pt" font-weight="normal" font-style="normal" x="510" y="49.5" width="1" height="41" d="M183.3396 38M182.66567999999998 42.12776L182.66567999999998 38.1404L182.778 38.1404C183.00263999999999 38.1404,183.22727999999998 38.30888,183.31152 38.53352C183.50807999999998 39.20744,184.21007999999998 40.41488,184.96823999999998 41.45384C185.95103999999998 42.85784,187.10232 44.14952,188.84328 45.80624C191.03351999999998 47.99648,192.24096 50.9168,192.24096 54.0056C192.24096 55.32536,191.98824 56.70128,191.59511999999998 58.02104L191.45471999999998 58.32992L191.59511999999998 58.6388C191.98824 59.9024,192.24096 61.22216,192.24096 62.51384C192.24096 65.04104000000001,191.42664 67.59632,189.9384 69.78656000000001C189.74184 70.0112,189.62951999999999 70.17967999999999,189.20832 70.7132C189.06792 70.90976,188.84328 71.05016,188.64672 71.05016C188.45015999999998 71.05016,188.25359999999998 70.90976,188.14128 70.68512C188.11319999999998 70.60088,188.05704 70.54472,188.05704 70.40432C188.05704 70.26392,188.16935999999998 70.06736000000001,188.42208 69.78656000000001C190.02264 67.87712,190.89311999999998 65.378,190.89311999999998 63.01928C190.89311999999998 62.87888,190.89311999999998 62.822720000000004,190.89311999999998 62.738479999999996C190.89311999999998 62.06456,190.7808 61.22216,190.69655999999998 60.85712C190.66848 60.77288,190.61231999999998 60.63248,190.58424 60.464C190.0788 58.52648,188.89944 56.72936,187.32695999999999 55.634240000000005C186.48456 55.01648,184.65936 54.53912,183.11496 54.53912C182.97456 54.53912,182.80607999999998 54.53912,182.778 54.53912L182.66567999999998 54.53912L182.66567999999998 50.60792L182.66567999999998 46.64864L182.778 46.64864C183.00263999999999 46.64864,183.22727999999998 46.78904,183.31152 47.04176C183.50807999999998 47.6876,184.21007999999998 48.89504,184.96823999999998 49.90592C185.95103999999998 51.36608,187.15848 52.68584,188.78712 54.2864C189.54528 55.01648,190.2192 55.830799999999996,190.61231999999998 56.5328C190.61231999999998 56.58896,190.66848 56.61704,190.66848 56.61704C190.69655999999998 56.61704,190.69655999999998 56.5328,190.75271999999998 56.42048C190.86504 55.74656,190.89311999999998 55.1288,190.89311999999998 54.482960000000006C190.89311999999998 53.893280000000004,190.86504 53.27552,190.75271999999998 52.62968C190.75271999999998 52.51736,190.69655999999998 52.40504,190.69655999999998 52.37696C190.66848 52.29272,190.61231999999998 52.12424,190.58424 51.98384C190.0788 50.01824,188.89944 48.2492,187.32695999999999 47.15408C186.48456 46.50824,184.65936 46.08704,183.11496 46.05896C182.97456 46.05896,182.80607999999998 46.05896,182.778 46.05896L182.66567999999998 46.05896L182.66567999999998 42.12776"></path></g></g><g class="vf-modifiers"></g></g><g class="vf-stavenote" id="vf-auto2726"><g class="vf-note" pointer-events="bounding-box"><g class="vf-stem" pointer-events="bounding-box"><path stroke-width="1.5" fill="none" stroke="black" stroke-dasharray="none" font-family="Arial" font-size="10pt" font-weight="normal" font-style="normal" x="510" y="49.5" width="1" height="41" d="M241.58024 80L241.58024 45"></path></g><g class="vf-notehead" pointer-events="bounding-box"><path stroke-width="0.3" fill="black" stroke="none" stroke-dasharray="none" font-family="Arial" font-size="10pt" font-weight="normal" font-style="normal" x="510" y="49.5" width="1" height="41" d="M230.312 80M237.66896 74.77712C237.78128 74.77712,237.94976000000003 74.77712,237.97784000000001 74.77712C237.97784000000001 74.77712,238.00592 74.77712,238.00592 74.77712C238.00592 74.77712,238.17440000000002 74.77712,238.31480000000002 74.77712C240.842 74.91752,242.33024 76.57424,242.33024 78.65216C242.33024 79.66304,241.99328000000003 80.81432,241.15088 81.90944C239.55032 84.0716,236.93888 85.25096,234.6644 85.25096C232.89536 85.25096,231.37904 84.54896,230.64896000000002 83.11688C230.42432000000002 82.55528,230.312 82.02176,230.312 81.43208C230.312 78.37136,233.73776 74.97368,237.66896 74.77712"></path></g></g><g class="vf-modifiers"><path stroke-width="0.3" fill="black" stroke="none" stroke-dasharray="none" font-family="Arial" font-size="10pt" font-weight="normal" font-style="normal" x="510" y="49.5" width="1" height="41" d="M249.33024 75 A2 2 0 0 0 245.33024 75M0 0M245.33024 75 A2 2 0 0 0 249.33024 75M0 0"></path></g></g><g class="vf-stavenote" id="vf-auto2735"><g class="vf-note" pointer-events="bounding-box"><g class="vf-stem" pointer-events="bounding-box"><path stroke-width="1.5" fill="none" stroke="black" stroke-dasharray="none" font-family="Arial" font-size="10pt" font-weight="normal" font-style="normal" x="510" y="49.5" width="1" height="41" d="M434.82343999999995 85L434.82343999999995 50"></path></g><g class="vf-notehead" pointer-events="bounding-box"><path stroke-width="0.3" fill="black" stroke="none" stroke-dasharray="none" font-family="Arial" font-size="10pt" font-weight="normal" font-style="normal" x="510" y="49.5" width="1" height="41" d="M423.55519999999996 85M430.91216 79.77712C431.02448 79.77712,431.19295999999997 79.77712,431.22103999999996 79.77712C431.22103999999996 79.77712,431.24911999999995 79.77712,431.24911999999995 79.77712C431.24911999999995 79.77712,431.41759999999994 79.77712,431.55799999999994 79.77712C434.0852 79.91752,435.57343999999995 81.57424,435.57343999999995 83.65216C435.57343999999995 84.66304,435.23648 85.81432,434.39408 86.90944C432.79351999999994 89.0716,430.1820799999999 90.25096,427.90759999999995 90.25096C426.13856 90.25096,424.62224 89.54896,423.89215999999993 88.11688C423.66751999999997 87.55528,423.55519999999996 87.02176,423.55519999999996 86.43208C423.55519999999996 83.37136,426.98096 79.97368,430.91216 79.77712"></path></g><g class="vf-flag" pointer-events="bounding-box"><path stroke-width="0.3" fill="black" stroke="none" stroke-dasharray="none" font-family="Arial" font-size="10pt" font-weight="normal" font-style="normal" x="510" y="49.5" width="1" height="41" d="M434.82343999999995 48M434.14951999999994 52.52088L434.14951999999994 48.1404L434.26183999999995 48.1404C434.57071999999994 48.1404,434.76727999999997 48.33696,434.82343999999995 48.67392C435.41311999999994 51.48192,437.18215999999995 54.54264,439.6251199999999 56.8452C442.34887999999995 59.40048,443.72479999999996 62.91048,443.72479999999996 66.53280000000001C443.72479999999996 69.95856,442.51735999999994 73.52472,440.07439999999997 76.47312C439.65319999999997 77.03472,439.6251199999999 77.03472,439.3443199999999 77.03472C439.00735999999995 77.03472,438.7827199999999 76.782,438.7827199999999 76.44504C438.7827199999999 76.19232,438.8108 76.13616,439.09159999999997 75.82728C441.22567999999995 73.24392,442.29272 70.12704,442.29272 67.15056C442.29272 64.51104000000001,441.4503199999999 61.98384,439.70935999999995 60.0744C438.6423199999999 58.89504,436.67671999999993 57.77184,434.1775999999999 56.90136C434.1775999999999 56.87328,434.14951999999994 56.0028,434.14951999999994 52.52088"></path></g></g><g class="vf-modifiers"></g></g></svg>
