<?xml version="1.0" encoding="utf-8" standalone="no"?>
<svg width="500" height="110" xmlns="http://www.w3.org/2000/svg"><path stroke-width="1" fill="none" stroke="#999999" stroke-dasharray="none" font-family="Arial" font-size="10pt" font-weight="normal" font-style="normal" d="M10 50L510 50"></path><path stroke-width="1" fill="none" stroke="#999999" stroke-dasharray="none" font-family="Arial" font-size="10pt" font-weight="normal" font-style="normal" d="M10 60L510 60"></path><path stroke-width="1" fill="none" stroke="#999999" stroke-dasharray="none" font-family="Arial" font-size="10pt" font-weight="normal" font-style="normal" d="M10 70L510 70"></path><path stroke-width="1" fill="none" stroke="#999999" stroke-dasharray="none" font-family="Arial" font-size="10pt" font-weight="normal" font-style="normal" d="M10 80L510 80"></path><path stroke-width="1" fill="none" stroke="#999999" stroke-dasharray="none" font-family="Arial" font-size="10pt" font-weight="normal" font-style="normal" d="M10 90L510 90"></path><rect stroke-width="0.3" fill="black" stroke="black" stroke-dasharray="none" font-family="Arial" font-size="10pt" font-weight="normal" font-style="normal" x="510" y="49.5" width="1" height="41"></rect><path stroke-width="0.3" fill="black" stroke="none" stroke-dasharray="none" font-family="Arial" font-size="10pt" font-weight="normal" font-style="normal" x="510" y="49.5" width="1" height="41" d="M15 80M29.0544 36.8288C29.112000000000002 36.800000000000004,29.1696 36.800000000000004,29.256 36.800000000000004C29.601599999999998 36.800000000000004,30.0048 37.088,30.5808 37.808C32.9136 40.4864,34.5552 45.152,34.5552 48.9536C34.5552 49.241600000000005,34.4976 49.472,34.4976 49.760000000000005C34.2384 54.2816,32.3952 57.9968,28.7376 61.510400000000004L27.7584 62.4608L27.412799999999997 62.8352L27.412799999999997 62.9504L27.6144 63.8144L27.9312 65.3696L28.247999999999998 66.8096C28.68 68.768,28.852800000000002 69.776,28.852800000000002 69.776C28.852800000000002 69.776,28.852800000000002 69.776,28.852800000000002 69.776C28.852800000000002 69.776,28.968 69.776,29.112000000000002 69.74719999999999C29.256 69.74719999999999,29.7168 69.6896,30.206400000000002 69.6896C30.552 69.6896,30.897599999999997 69.74719999999999,31.0704 69.74719999999999C35.1312 70.2656,38.270399999999995 73.1744,39.1632 77.264C39.336 77.9264,39.3936 78.6464,39.3936 79.3664C39.3936 83.2544,37.0608 86.9696,33.172799999999995 88.7264C32.9424 88.8704,32.855999999999995 88.89920000000001,32.855999999999995 88.89920000000001L32.855999999999995 88.928C32.855999999999995 88.928,33.028800000000004 89.5904,33.172799999999995 90.3392L33.6048 92.528L34.007999999999996 94.2848C34.2384 95.408,34.3536 96.2144,34.3536 96.9344C34.3536 97.568,34.2672 98.144,34.1232 98.8064C33.144 102.8096,29.6592 105.2,26.0304 105.2C24.244799999999998 105.2,22.401600000000002 104.624,20.788800000000002 103.328C19.3488 102.11840000000001,18.7152 101.024,18.7152 99.584C18.7152 97.0496,20.759999999999998 95.264,22.891199999999998 95.264C23.64 95.264,24.3888 95.4944,25.108800000000002 95.9264C26.3184 96.7616,26.8656 98.0288,26.8656 99.2672C26.8656 101.168,25.540799999999997 103.03999999999999,23.2656 103.184L23.0352 103.184L23.208 103.2992C24.1584 103.7024,25.108800000000002 103.904,26.0304 103.904C28.3632 103.904,30.552 102.72319999999999,31.8768 100.6784C32.6256 99.5264,33.028800000000004 98.1728,33.028800000000004 96.8192C33.028800000000004 96.3008,32.9424 95.7824,32.827200000000005 95.2064C32.827200000000005 95.1488,32.7408 94.688,32.6256 94.256C31.992 91.1456,31.6176 89.3312,31.6176 89.3312C31.6176 89.3312,31.6176 89.3312,31.6176 89.3312C31.56 89.3312,31.4448 89.3312,31.3584 89.3888C31.0704 89.4464,30.465600000000002 89.5904,30.206400000000002 89.6192C29.5728 89.7056,28.968 89.7344,28.392 89.7344C22.7472 89.7344,17.5056 85.9328,15.6912 80.3168C15.2304 78.8192,14.9712 77.3216,14.9712 75.824C14.9712 72.8288,15.9216 69.8912,17.7648 67.2704C19.7808 64.4192,21.7968 61.971199999999996,24.273600000000002 59.436800000000005L25.1376 58.544L24.936 57.4784L24.5616 55.7216L24.072 53.4752C23.927999999999997 52.64,23.755200000000002 51.833600000000004,23.726399999999998 51.6608C23.5824 50.7104,23.496000000000002 49.7888,23.496000000000002 48.8384C23.496000000000002 45.2096,24.6768 41.7248,26.894399999999997 38.931200000000004C27.5568 38.0672,28.7376 36.9152,29.0544 36.8288M30.8112 42.5312C30.7536 42.5312,30.6672 42.5312,30.5808 42.5312C29.4 42.5312,27.8736 43.6256,26.8368 45.2384C25.7712 46.8224,25.224 48.924800000000005,25.224 51.0848C25.224 51.6608,25.2528 52.2656,25.339199999999998 52.870400000000004C25.4256 53.302400000000006,25.4544 53.5904,25.6848 54.6272L26.088 56.4416C26.2032 56.9888,26.2896 57.4208,26.2896 57.4784L26.2896 57.4784C26.3184 57.4784,27.211199999999998 56.4992,27.499200000000002 56.1536C30.379199999999997 52.8992,32.1072 49.472,32.4816 46.448C32.510400000000004 46.160000000000004,32.510400000000004 45.9296,32.510400000000004 45.641600000000004C32.510400000000004 44.7488,32.3952 43.8848,32.1936 43.424C31.9632 42.9632,31.4448 42.5888,30.8112 42.5312M26.4624 64.7936C26.4048 64.3904,26.3184 64.0736,26.3184 64.016C26.3184 64.016,26.3184 64.016,26.2896 64.016C26.232 64.016,24.9936 65.456,24.1296 66.464C22.660800000000002 68.2496,21.1056 70.3808,20.472 71.4176C19.2624 73.4624,18.6576 75.7376,18.6576 77.984C18.6576 79.4528,18.9456 80.864,19.464 82.2176C21.019199999999998 86.2208,24.5904 88.7264,28.4784 88.7264C28.9392 88.7264,29.4576 88.6976,29.9472 88.6112C30.5808 88.496,31.3584 88.2656,31.3584 88.1792L31.3584 88.1792C31.3584 88.1792,31.3008 87.8912,31.2144 87.5744L30.379199999999997 83.456L29.7168 80.3744L29.284799999999997 78.2432L28.823999999999998 76.1696C28.593600000000002 74.9312,28.507199999999997 74.6144,28.507199999999997 74.6144C28.507199999999997 74.6144,28.507199999999997 74.5856,28.4784 74.5856C28.3056 74.5856,27.384 75.0464,26.980800000000002 75.3344C25.4832 76.3712,24.7056 78.0128,24.7056 79.6256C24.7056 81.152,25.4544 82.6784,26.894399999999997 83.5712C27.211199999999998 83.7728,27.3264 83.9456,27.3264 84.1472C27.3264 84.176,27.3264 84.2624,27.3264 84.2912C27.2688 84.6368,27.0672 84.7808,26.7792 84.7808C26.664 84.7808,26.52 84.752,26.3472 84.6656C23.6976 83.5136,21.912 80.7776,21.912 77.7824L21.912 77.7824C21.912 74.3264,24.072 71.3312,27.384 70.1504L27.5568 70.0928L27.2688 68.6528L26.4624 64.7936M30.7824 74.4128C30.552 74.384,30.3216 74.384,30.1488 74.384C30.0912 74.384,30.0048 74.384,29.9472 74.384L29.8032 74.384L29.9184 74.9024L30.5232 77.7248L30.897599999999997 79.568L31.3008 81.3824L32.1072 85.3856L32.424 86.912C32.5392 87.3152,32.5968 87.6608,32.6256 87.6608C32.6256 87.6608,32.6256 87.6608,32.6256 87.6608C32.654399999999995 87.6608,33.144 87.3728,33.4608 87.1424C34.9296 86.1056,36.024 84.4928,36.4272 82.8224C36.571200000000005 82.2752,36.6288 81.6992,36.6288 81.152C36.6288 77.8112,34.152 74.7872,30.7824 74.4128"></path><g class="vf-stavenote" id="vf-auto2634"><g class="vf-note" pointer-events="bounding-box"><g class="vf-stem" pointer-events="bounding-box"><path stroke-width="1.5" fill="none" stroke="black" stroke-dasharray="none" font-family="Arial" font-size="10pt" font-weight="normal" font-style="normal" x="510" y="49.5" width="1" height="41" d="M62.690639999999995 65L62.690639999999995 30"></path></g><g class="vf-notehead" pointer-events="bounding-box"><path stroke-width="0.3" fill="black" stroke="none" stroke-dasharray="none" font-family="Arial" font-size="10pt" font-weight="normal" font-style="normal" x="510" y="49.5" width="1" height="41" d="M51.422399999999996 65M58.77936 59.77712C58.891679999999994 59.77712,59.060159999999996 59.77712,59.08824 59.77712C59.08824 59.77712,59.116319999999995 59.77712,59.116319999999995 59.77712C59.116319999999995 59.77712,59.2848 59.77712,59.4252 59.77712C61.9524 59.917519999999996,63.440639999999995 61.57424,63.440639999999995 63.65216C63.440639999999995 64.66304,63.10368 65.81432,62.26128 66.90944C60.66072 69.0716,58.049279999999996 70.25096,55.7748 70.25096C54.005759999999995 70.25096,52.489439999999995 69.54896,51.759359999999994 68.11688C51.53471999999999 67.55528,51.422399999999996 67.02176,51.422399999999996 66.43208C51.422399999999996 63.37136,54.84815999999999 59.97368,58.77936 59.77712"></path></g></g><g class="vf-modifiers"></g></g><g class="vf-stavenote" id="vf-auto2642"><g class="vf-note" pointer-events="bounding-box"><g class="vf-stem" pointer-events="bounding-box"><path stroke-width="1.5" fill="none" stroke="black" stroke-dasharray="none" font-family="Arial" font-size="10pt" font-weight="normal" font-style="normal" x="510" y="49.5" width="1" height="41" d="M180.84264000000002 70L180.84264000000002 35"></path></g><g class="vf-notehead" pointer-events="bounding-box"><path stroke-width="0.3" fill="black" stroke="none" stroke-dasharray="none" font-family="Arial" font-size="10pt" font-weight="normal" font-style="normal" x="510" y="49.5" width="1" height="41" d="M169.57440000000003 70M176.93136 64.77712C177.04368000000002 64.77712,177.21216000000004 64.77712,177.24024000000003 64.77712C177.24024000000003 64.77712,177.26832000000002 64.77712,177.26832000000002 64.77712C177.26832000000002 64.77712,177.43680000000003 64.77712,177.57720000000003 64.77712C180.10440000000003 64.91752,181.59264000000002 66.57424,181.59264000000002 68.65216C181.59264000000002 69.66304,181.25568000000004 70.81432,180.41328000000001 71.90944C178.81272 74.0716,176.20128000000003 75.25096,173.92680000000001 75.25096C172.15776000000002 75.25096,170.64144000000002 74.54896,169.91136000000003 73.11688C169.68672000000004 72.55528,169.57440000000003 72.02176,169.57440000000003 71.43208C169.57440000000003 68.37136,173.00016000000002 64.97368,176.93136 64.77712"></path></g><g class="vf-flag" pointer-events="bounding-box"><path stroke-width="0.3" fill="black" stroke="none" stroke-dasharray="none" font-family="Arial" font-size="10pt" font-weight="normal" font-style="normal" x="510" y="49.5" width="1" height="41" d="M180.84264000000002 33M180.16872 37.52088L180.16872 33.1404L180.28104000000002 33.1404C180.58992 33.1404,180.78648 33.33696,180.84264000000002 33.67392C181.43232 36.48192,183.20136000000002 39.54264,185.64432000000002 41.8452C188.36808000000002 44.40048,189.74400000000003 47.91048,189.74400000000003 51.5328C189.74400000000003 54.958560000000006,188.53656 58.52472,186.0936 61.47312C185.6724 62.03472,185.64432000000002 62.03472,185.36352000000002 62.03472C185.02656000000002 62.03472,184.80192000000002 61.782,184.80192000000002 61.445040000000006C184.80192000000002 61.19232,184.83 61.136160000000004,185.1108 60.82728C187.24488000000002 58.24392,188.31192000000001 55.12704,188.31192000000001 52.15056C188.31192000000001 49.51104,187.46952000000002 46.98384,185.72856000000002 45.0744C184.66152000000002 43.89504,182.69592000000003 42.77184,180.19680000000002 41.90136C180.19680000000002 41.87328,180.16872 41.0028,180.16872 37.52088"></path></g></g><g class="vf-modifiers"><path stroke-width="0.3" fill="black" stroke="none" stroke-dasharray="none" font-family="Arial" font-size="10pt" font-weight="normal" font-style="normal" x="510" y="49.5" width="1" height="41" d="M198.16792000000004 65 A2 2 0 0 0 194.16792000000004 65M0 0M194.16792000000004 65 A2 2 0 0 0 198.16792000000004 65M0 0"></path></g></g><g class="vf-stavenote" id="vf-auto2653"><g class="vf-note" pointer-events="bounding-box"><g class="vf-stem" pointer-events="bounding-box"><path stroke-width="1.5" fill="none" stroke="black" stroke-dasharray="none" font-family="Arial" font-size="10pt" font-weight="normal" font-style="normal" x="510" y="49.5" width="1" height="41" d="M291.97944 75L291.97944 40"></path></g><g class="vf-notehead" pointer-events="bounding-box"><path stroke-width="0.3" fill="black" stroke="none" stroke-dasharray="none" font-family="Arial" font-size="10pt" font-weight="normal" font-style="normal" x="510" y="49.5" width="1" height="41" d="M280.7112 75M288.06816000000003 69.77712C288.18048000000005 69.77712,288.34896000000003 69.77712,288.37704 69.77712C288.37704 69.77712,288.40512 69.77712,288.40512 69.77712C288.40512 69.77712,288.5736 69.77712,288.714 69.77712C291.24120000000005 69.91752,292.72944 71.57424,292.72944 73.65216C292.72944 74.66304,292.39248000000003 75.81432,291.55008000000004 76.90944C289.94952 79.0716,287.33808 80.25096,285.0636 80.25096C283.29456000000005 80.25096,281.77824000000004 79.54896,281.04816 78.11688C280.82352000000003 77.55528,280.7112 77.02176,280.7112 76.43208C280.7112 73.37136,284.13696000000004 69.97368,288.06816000000003 69.77712"></path></g><g class="vf-flag" pointer-events="bounding-box"><path stroke-width="0.3" fill="black" stroke="none" stroke-dasharray="none" font-family="Arial" font-size="10pt" font-weight="normal" font-style="normal" x="510" y="49.5" width="1" height="41" d="M291.97944 38M291.30552 42.12776L291.30552 38.1404L291.41784 38.1404C291.64248000000003 38.1404,291.86712 38.30888,291.95136 38.53352C292.14792 39.20744,292.84992 40.41488,293.60808000000003 41.45384C294.59088 42.85784,295.74216 44.14952,297.48312 45.80624C299.67336 47.99648,300.8808 50.9168,300.8808 54.0056C300.8808 55.32536,300.62808 56.70128,300.23496 58.02104L300.09456 58.32992L300.23496 58.6388C300.62808 59.9024,300.8808 61.22216,300.8808 62.51384C300.8808 65.04104000000001,300.06648 67.59632,298.57824 69.78656000000001C298.38168 70.0112,298.26936 70.17967999999999,297.84816 70.7132C297.70776 70.90976,297.48312 71.05016,297.28656 71.05016C297.09000000000003 71.05016,296.89344 70.90976,296.78112 70.68512C296.75304 70.60088,296.69688 70.54472,296.69688 70.40432C296.69688 70.26392,296.80920000000003 70.06736000000001,297.06192 69.78656000000001C298.66248 67.87712,299.53296 65.378,299.53296 63.01928C299.53296 62.87888,299.53296 62.822720000000004,299.53296 62.738479999999996C299.53296 62.06456,299.42064 61.22216,299.3364 60.85712C299.30832000000004 60.77288,299.25216 60.63248,299.22408 60.464C298.71864 58.52648,297.53928 56.72936,295.96680000000003 55.634240000000005C295.12440000000004 55.01648,293.2992 54.53912,291.7548 54.53912C291.6144 54.53912,291.44592 54.53912,291.41784 54.53912L291.30552 54.53912L291.30552 50.60792L291.30552 46.64864L291.41784 46.64864C291.64248000000003 46.64864,291.86712 46.78904,291.95136 47.04176C292.14792 47.6876,292.84992 48.89504,293.60808000000003 49.90592C294.59088 51.36608,295.79832 52.68584,297.42696 54.2864C298.18512 55.01648,298.85904 55.830799999999996,299.25216 56.5328C299.25216 56.58896,299.30832000000004 56.61704,299.30832000000004 56.61704C299.3364 56.61704,299.3364 56.5328,299.39256 56.42048C299.50488 55.74656,299.53296 55.1288,299.53296 54.482960000000006C299.53296 53.893280000000004,299.50488 53.27552,299.39256 52.62968C299.39256 52.51736,299.3364 52.40504,299.3364 52.37696C299.30832000000004 52.29272,299.25216 52.12424,299.22408 51.98384C298.71864 50.01824,297.53928 48.2492,295.96680000000003 47.15408C295.12440000000004 46.50824,293.2992 46.08704,291.7548 46.05896C291.6144 46.05896,291.44592 46.05896,291.41784 46.05896L291.30552 46.05896L291.30552 42.12776"></path></g></g><g class="vf-modifiers"></g></g><g class="vf-stavenote" id="vf-auto2663"><g class="vf-note" pointer-events="bounding-box"><g class="vf-stem" pointer-events="bounding-box"><path stroke-width="1.5" fill="none" stroke="black" stroke-dasharray="none" font-family="Arial" font-size="10pt" font-weight="normal" font-style="normal" x="510" y="49.5" width="1" height="41" d="M347.04936 80L347.04936 45"></path></g><g class="vf-notehead" pointer-events="bounding-box"><path stroke-width="0.3" fill="black" stroke="none" stroke-dasharray="none" font-family="Arial" font-size="10pt" font-weight="normal" font-style="normal" x="510" y="49.5" width="1" height="41" d="M335.78112 80M343.13808 74.77712C343.2504 74.77712,343.41888 74.77712,343.44696 74.77712C343.44696 74.77712,343.47504 74.77712,343.47504 74.77712C343.47504 74.77712,343.64351999999997 74.77712,343.78391999999997 74.77712C346.31111999999996 74.91752,347.79936 76.57424,347.79936 78.65216C347.79936 79.66304,347.4624 80.81432,346.62 81.90944C345.01944 84.0716,342.408 85.25096,340.13352 85.25096C338.36448 85.25096,336.84816 84.54896,336.11807999999996 83.11688C335.89344 82.55528,335.78112 82.02176,335.78112 81.43208C335.78112 78.37136,339.20688 74.97368,343.13808 74.77712"></path></g></g><g class="vf-modifiers"><path stroke-width="0.3" fill="black" stroke="none" stroke-dasharray="none" font-family="Arial" font-size="10pt" font-weight="normal" font-style="normal" x="510" y="49.5" width="1" height="41" d="M354.79936 75 A2 2 0 0 0 350.79936 75M0 0M350.79936 75 A2 2 0 0 0 354.79936 75M0 0"></path></g></g></svg>
