<?xml version="1.0" encoding="utf-8" standalone="no"?>
<svg width="500" height="120" xmlns="http://www.w3.org/2000/svg"><path stroke-width="1" fill="none" stroke="#999999" stroke-dasharray="none" font-family="Arial" font-size="10pt" font-weight="normal" font-style="normal" d="M10 50L510 50"></path><path stroke-width="1" fill="none" stroke="#999999" stroke-dasharray="none" font-family="Arial" font-size="10pt" font-weight="normal" font-style="normal" d="M10 60L510 60"></path><path stroke-width="1" fill="none" stroke="#999999" stroke-dasharray="none" font-family="Arial" font-size="10pt" font-weight="normal" font-style="normal" d="M10 70L510 70"></path><path stroke-width="1" fill="none" stroke="#999999" stroke-dasharray="none" font-family="Arial" font-size="10pt" font-weight="normal" font-style="normal" d="M10 80L510 80"></path><path stroke-width="1" fill="none" stroke="#999999" stroke-dasharray="none" font-family="Arial" font-size="10pt" font-weight="normal" font-style="normal" d="M10 90L510 90"></path><rect stroke-width="0.3" fill="black" stroke="black" stroke-dasharray="none" font-family="Arial" font-size="10pt" font-weight="normal" font-style="normal" x="510" y="49.5" width="1" height="41"></rect><path stroke-width="0.3" fill="black" stroke="none" stroke-dasharray="none" font-family="Arial" font-size="10pt" font-weight="normal" font-style="normal" x="510" y="49.5" width="1" height="41" d="M15 80M29.0544 36.8288C29.112000000000002 36.800000000000004,29.1696 36.800000000000004,29.256 36.800000000000004C29.601599999999998 36.800000000000004,30.0048 37.088,30.5808 37.808C32.9136 40.4864,34.5552 45.152,34.5552 48.9536C34.5552 49.241600000000005,34.4976 49.472,34.4976 49.760000000000005C34.2384 54.2816,32.3952 57.9968,28.7376 61.510400000000004L27.7584 62.4608L27.412799999999997 62.8352L27.412799999999997 62.9504L27.6144 63.8144L27.9312 65.3696L28.247999999999998 66.8096C28.68 68.768,28.852800000000002 69.776,28.852800000000002 69.776C28.852800000000002 69.776,28.852800000000002 69.776,28.852800000000002 69.776C28.852800000000002 69.776,28.968 69.776,29.112000000000002 69.74719999999999C29.256 69.74719999999999,29.7168 69.6896,30.206400000000002 69.6896C30.552 69.6896,30.897599999999997 69.74719999999999,31.0704 69.74719999999999C35.1312 70.2656,38.270399999999995 73.1744,39.1632 77.264C39.336 77.9264,39.3936 78.6464,39.3936 79.3664C39.3936 83.2544,37.0608 86.9696,33.172799999999995 88.7264C32.9424 88.8704,32.855999999999995 88.89920000000001,32.855999999999995 88.89920000000001L32.855999999999995 88.928C32.855999999999995 88.928,33.028800000000004 89.5904,33.172799999999995 90.3392L33.6048 92.528L34.007999999999996 94.2848C34.2384 95.408,34.3536 96.2144,34.3536 96.9344C34.3536 97.568,34.2672 98.144,34.1232 98.8064C33.144 102.8096,29.6592 105.2,26.0304 105.2C24.244799999999998 105.2,22.401600000000002 104.624,20.788800000000002 103.328C19.3488 102.11840000000001,18.7152 101.024,18.7152 99.584C18.7152 97.0496,20.759999999999998 95.264,22.891199999999998 95.264C23.64 95.264,24.3888 95.4944,25.108800000000002 95.9264C26.3184 96.7616,26.8656 98.0288,26.8656 99.2672C26.8656 101.168,25.540799999999997 103.03999999999999,23.2656 103.184L23.0352 103.184L23.208 103.2992C24.1584 103.7024,25.108800000000002 103.904,26.0304 103.904C28.3632 103.904,30.552 102.72319999999999,31.8768 100.6784C32.6256 99.5264,33.028800000000004 98.1728,33.028800000000004 96.8192C33.028800000000004 96.3008,32.9424 95.7824,32.827200000000005 95.2064C32.827200000000005 95.1488,32.7408 94.688,32.6256 94.256C31.992 91.1456,31.6176 89.3312,31.6176 89.3312C31.6176 89.3312,31.6176 89.3312,31.6176 89.3312C31.56 89.3312,31.4448 89.3312,31.3584 89.3888C31.0704 89.4464,30.465600000000002 89.5904,30.206400000000002 89.6192C29.5728 89.7056,28.968 89.7344,28.392 89.7344C22.7472 89.7344,17.5056 85.9328,15.6912 80.3168C15.2304 78.8192,14.9712 77.3216,14.9712 75.824C14.9712 72.8288,15.9216 69.8912,17.7648 67.2704C19.7808 64.4192,21.7968 61.971199999999996,24.273600000000002 59.436800000000005L25.1376 58.544L24.936 57.4784L24.5616 55.7216L24.072 53.4752C23.927999999999997 52.64,23.755200000000002 51.833600000000004,23.726399999999998 51.6608C23.5824 50.7104,23.496000000000002 49.7888,23.496000000000002 48.8384C23.496000000000002 45.2096,24.6768 41.7248,26.894399999999997 38.931200000000004C27.5568 38.0672,28.7376 36.9152,29.0544 36.8288M30.8112 42.5312C30.7536 42.5312,30.6672 42.5312,30.5808 42.5312C29.4 42.5312,27.8736 43.6256,26.8368 45.2384C25.7712 46.8224,25.224 48.924800000000005,25.224 51.0848C25.224 51.6608,25.2528 52.2656,25.339199999999998 52.870400000000004C25.4256 53.302400000000006,25.4544 53.5904,25.6848 54.6272L26.088 56.4416C26.2032 56.9888,26.2896 57.4208,26.2896 57.4784L26.2896 57.4784C26.3184 57.4784,27.211199999999998 56.4992,27.499200000000002 56.1536C30.379199999999997 52.8992,32.1072 49.472,32.4816 46.448C32.510400000000004 46.160000000000004,32.510400000000004 45.9296,32.510400000000004 45.641600000000004C32.510400000000004 44.7488,32.3952 43.8848,32.1936 43.424C31.9632 42.9632,31.4448 42.5888,30.8112 42.5312M26.4624 64.7936C26.4048 64.3904,26.3184 64.0736,26.3184 64.016C26.3184 64.016,26.3184 64.016,26.2896 64.016C26.232 64.016,24.9936 65.456,24.1296 66.464C22.660800000000002 68.2496,21.1056 70.3808,20.472 71.4176C19.2624 73.4624,18.6576 75.7376,18.6576 77.984C18.6576 79.4528,18.9456 80.864,19.464 82.2176C21.019199999999998 86.2208,24.5904 88.7264,28.4784 88.7264C28.9392 88.7264,29.4576 88.6976,29.9472 88.6112C30.5808 88.496,31.3584 88.2656,31.3584 88.1792L31.3584 88.1792C31.3584 88.1792,31.3008 87.8912,31.2144 87.5744L30.379199999999997 83.456L29.7168 80.3744L29.284799999999997 78.2432L28.823999999999998 76.1696C28.593600000000002 74.9312,28.507199999999997 74.6144,28.507199999999997 74.6144C28.507199999999997 74.6144,28.507199999999997 74.5856,28.4784 74.5856C28.3056 74.5856,27.384 75.0464,26.980800000000002 75.3344C25.4832 76.3712,24.7056 78.0128,24.7056 79.6256C24.7056 81.152,25.4544 82.6784,26.894399999999997 83.5712C27.211199999999998 83.7728,27.3264 83.9456,27.3264 84.1472C27.3264 84.176,27.3264 84.2624,27.3264 84.2912C27.2688 84.6368,27.0672 84.7808,26.7792 84.7808C26.664 84.7808,26.52 84.752,26.3472 84.6656C23.6976 83.5136,21.912 80.7776,21.912 77.7824L21.912 77.7824C21.912 74.3264,24.072 71.3312,27.384 70.1504L27.5568 70.0928L27.2688 68.6528L26.4624 64.7936M30.7824 74.4128C30.552 74.384,30.3216 74.384,30.1488 74.384C30.0912 74.384,30.0048 74.384,29.9472 74.384L29.8032 74.384L29.9184 74.9024L30.5232 77.7248L30.897599999999997 79.568L31.3008 81.3824L32.1072 85.3856L32.424 86.912C32.5392 87.3152,32.5968 87.6608,32.6256 87.6608C32.6256 87.6608,32.6256 87.6608,32.6256 87.6608C32.654399999999995 87.6608,33.144 87.3728,33.4608 87.1424C34.9296 86.1056,36.024 84.4928,36.4272 82.8224C36.571200000000005 82.2752,36.6288 81.6992,36.6288 81.152C36.6288 77.8112,34.152 74.7872,30.7824 74.4128"></path><g class="vf-stavenote" id="vf-auto2533"><g class="vf-note" pointer-events="bounding-box"><g class="vf-stem" pointer-events="bounding-box"><path stroke-width="1.5" fill="none" stroke="black" stroke-dasharray="none" font-family="Arial" font-size="10pt" font-weight="normal" font-style="normal" x="510" y="49.5" width="1" height="41" d="M62.690639999999995 65L62.690639999999995 30"></path></g><g class="vf-notehead" pointer-events="bounding-box"><path stroke-width="0.3" fill="black" stroke="none" stroke-dasharray="none" font-family="Arial" font-size="10pt" font-weight="normal" font-style="normal" x="510" y="49.5" width="1" height="41" d="M51.422399999999996 65M58.77936 59.77712C58.891679999999994 59.77712,59.060159999999996 59.77712,59.08824 59.77712C59.08824 59.77712,59.116319999999995 59.77712,59.116319999999995 59.77712C59.116319999999995 59.77712,59.2848 59.77712,59.4252 59.77712C61.9524 59.917519999999996,63.440639999999995 61.57424,63.440639999999995 63.65216C63.440639999999995 64.66304,63.10368 65.81432,62.26128 66.90944C60.66072 69.0716,58.049279999999996 70.25096,55.7748 70.25096C54.005759999999995 70.25096,52.489439999999995 69.54896,51.759359999999994 68.11688C51.53471999999999 67.55528,51.422399999999996 67.02176,51.422399999999996 66.43208C51.422399999999996 63.37136,54.84815999999999 59.97368,58.77936 59.77712"></path></g></g><g class="vf-modifiers"></g></g><g class="vf-stavenote" id="vf-auto2541"><g class="vf-note" pointer-events="bounding-box"><g class="vf-stem" pointer-events="bounding-box"><path stroke-width="1.5" fill="none" stroke="black" stroke-dasharray="none" font-family="Arial" font-size="10pt" font-weight="normal" font-style="normal" x="510" y="49.5" width="1" height="41" d="M141.19156800000002 70L141.19156800000002 35"></path></g><g class="vf-notehead" pointer-events="bounding-box"><path stroke-width="0.3" fill="black" stroke="none" stroke-dasharray="none" font-family="Arial" font-size="10pt" font-weight="normal" font-style="normal" x="510" y="49.5" width="1" height="41" d="M129.92332800000003 70M137.280288 64.77712C137.39260800000002 64.77712,137.56108800000004 64.77712,137.58916800000003 64.77712C137.58916800000003 64.77712,137.61724800000002 64.77712,137.61724800000002 64.77712C137.61724800000002 64.77712,137.78572800000003 64.77712,137.92612800000003 64.77712C140.45332800000003 64.91752,141.94156800000002 66.57424,141.94156800000002 68.65216C141.94156800000002 69.66304,141.60460800000004 70.81432,140.76220800000002 71.90944C139.161648 74.0716,136.55020800000003 75.25096,134.27572800000002 75.25096C132.50668800000003 75.25096,130.99036800000002 74.54896,130.26028800000003 73.11688C130.03564800000004 72.55528,129.92332800000003 72.02176,129.92332800000003 71.43208C129.92332800000003 68.37136,133.34908800000002 64.97368,137.280288 64.77712"></path></g><g class="vf-flag" pointer-events="bounding-box"><path stroke-width="0.3" fill="black" stroke="none" stroke-dasharray="none" font-family="Arial" font-size="10pt" font-weight="normal" font-style="normal" x="510" y="49.5" width="1" height="41" d="M141.19156800000002 33M140.517648 37.52088L140.517648 33.1404L140.62996800000002 33.1404C140.938848 33.1404,141.135408 33.33696,141.19156800000002 33.67392C141.781248 36.48192,143.55028800000002 39.54264,145.99324800000002 41.8452C148.71700800000002 44.40048,150.09292800000003 47.91048,150.09292800000003 51.5328C150.09292800000003 54.958560000000006,148.885488 58.52472,146.442528 61.47312C146.021328 62.03472,145.99324800000002 62.03472,145.71244800000002 62.03472C145.37548800000002 62.03472,145.15084800000002 61.782,145.15084800000002 61.445040000000006C145.15084800000002 61.19232,145.178928 61.136160000000004,145.459728 60.82728C147.59380800000002 58.24392,148.66084800000002 55.12704,148.66084800000002 52.15056C148.66084800000002 49.51104,147.81844800000002 46.98384,146.07748800000002 45.0744C145.01044800000003 43.89504,143.04484800000003 42.77184,140.54572800000003 41.90136C140.54572800000003 41.87328,140.517648 41.0028,140.517648 37.52088"></path></g></g><g class="vf-modifiers"><path stroke-width="0.3" fill="black" stroke="none" stroke-dasharray="none" font-family="Arial" font-size="10pt" font-weight="normal" font-style="normal" x="510" y="49.5" width="1" height="41" d="M158.51684800000004 65 A2 2 0 0 0 154.51684800000004 65M0 0M154.51684800000004 65 A2 2 0 0 0 158.51684800000004 65M0 0"></path></g></g><g class="vf-stavenote" id="vf-auto2552"><g class="vf-note" pointer-events="bounding-box"><g class="vf-stem" pointer-events="bounding-box"><path stroke-width="1.5" fill="none" stroke="black" stroke-dasharray="none" font-family="Arial" font-size="10pt" font-weight="normal" font-style="normal" x="510" y="49.5" width="1" height="41" d="M222.59006399999998 75L222.59006399999998 40"></path></g><g class="vf-notehead" pointer-events="bounding-box"><path stroke-width="0.3" fill="black" stroke="none" stroke-dasharray="none" font-family="Arial" font-size="10pt" font-weight="normal" font-style="normal" x="510" y="49.5" width="1" height="41" d="M211.321824 75M218.67878399999998 69.77712C218.791104 69.77712,218.959584 69.77712,218.987664 69.77712C218.987664 69.77712,219.01574399999998 69.77712,219.01574399999998 69.77712C219.01574399999998 69.77712,219.184224 69.77712,219.324624 69.77712C221.851824 69.91752,223.34006399999998 71.57424,223.34006399999998 73.65216C223.34006399999998 74.66304,223.003104 75.81432,222.16070399999998 76.90944C220.56014399999998 79.0716,217.948704 80.25096,215.67422399999998 80.25096C213.905184 80.25096,212.38886399999998 79.54896,211.658784 78.11688C211.434144 77.55528,211.321824 77.02176,211.321824 76.43208C211.321824 73.37136,214.747584 69.97368,218.67878399999998 69.77712"></path></g><g class="vf-flag" pointer-events="bounding-box"><path stroke-width="0.3" fill="black" stroke="none" stroke-dasharray="none" font-family="Arial" font-size="10pt" font-weight="normal" font-style="normal" x="510" y="49.5" width="1" height="41" d="M222.59006399999998 38M221.91614399999997 42.12776L221.91614399999997 38.1404L222.02846399999999 38.1404C222.25310399999998 38.1404,222.47774399999997 38.30888,222.561984 38.53352C222.75854399999997 39.20744,223.46054399999997 40.41488,224.21870399999997 41.45384C225.20150399999997 42.85784,226.35278399999999 44.14952,228.093744 45.80624C230.28398399999998 47.99648,231.491424 50.9168,231.491424 54.0056C231.491424 55.32536,231.23870399999998 56.70128,230.84558399999997 58.02104L230.70518399999997 58.32992L230.84558399999997 58.6388C231.23870399999998 59.9024,231.491424 61.22216,231.491424 62.51384C231.491424 65.04104000000001,230.67710399999999 67.59632,229.188864 69.78656000000001C228.992304 70.0112,228.87998399999998 70.17967999999999,228.45878399999998 70.7132C228.31838399999998 70.90976,228.093744 71.05016,227.89718399999998 71.05016C227.70062399999998 71.05016,227.50406399999997 70.90976,227.391744 70.68512C227.36366399999997 70.60088,227.307504 70.54472,227.307504 70.40432C227.307504 70.26392,227.41982399999998 70.06736000000001,227.672544 69.78656000000001C229.273104 67.87712,230.14358399999998 65.378,230.14358399999998 63.01928C230.14358399999998 62.87888,230.14358399999998 62.822720000000004,230.14358399999998 62.738479999999996C230.14358399999998 62.06456,230.031264 61.22216,229.94702399999997 60.85712C229.91894399999998 60.77288,229.86278399999998 60.63248,229.834704 60.464C229.329264 58.52648,228.149904 56.72936,226.57742399999998 55.634240000000005C225.73502399999998 55.01648,223.909824 54.53912,222.365424 54.53912C222.225024 54.53912,222.05654399999997 54.53912,222.02846399999999 54.53912L221.91614399999997 54.53912L221.91614399999997 50.60792L221.91614399999997 46.64864L222.02846399999999 46.64864C222.25310399999998 46.64864,222.47774399999997 46.78904,222.561984 47.04176C222.75854399999997 47.6876,223.46054399999997 48.89504,224.21870399999997 49.90592C225.20150399999997 51.36608,226.408944 52.68584,228.03758399999998 54.2864C228.79574399999998 55.01648,229.469664 55.830799999999996,229.86278399999998 56.5328C229.86278399999998 56.58896,229.91894399999998 56.61704,229.91894399999998 56.61704C229.94702399999997 56.61704,229.94702399999997 56.5328,230.00318399999998 56.42048C230.115504 55.74656,230.14358399999998 55.1288,230.14358399999998 54.482960000000006C230.14358399999998 53.893280000000004,230.115504 53.27552,230.00318399999998 52.62968C230.00318399999998 52.51736,229.94702399999997 52.40504,229.94702399999997 52.37696C229.91894399999998 52.29272,229.86278399999998 52.12424,229.834704 51.98384C229.329264 50.01824,228.149904 48.2492,226.57742399999998 47.15408C225.73502399999998 46.50824,223.909824 46.08704,222.365424 46.05896C222.225024 46.05896,222.05654399999997 46.05896,222.02846399999999 46.05896L221.91614399999997 46.05896L221.91614399999997 42.12776"></path></g></g><g class="vf-modifiers"></g></g><g class="vf-stavenote" id="vf-auto2562"><g class="vf-note" pointer-events="bounding-box"><g class="vf-stem" pointer-events="bounding-box"><path stroke-width="1.5" fill="none" stroke="black" stroke-dasharray="none" font-family="Arial" font-size="10pt" font-weight="normal" font-style="normal" x="510" y="49.5" width="1" height="41" d="M267.747216 80L267.747216 45"></path></g><g class="vf-notehead" pointer-events="bounding-box"><path stroke-width="0.3" fill="black" stroke="none" stroke-dasharray="none" font-family="Arial" font-size="10pt" font-weight="normal" font-style="normal" x="510" y="49.5" width="1" height="41" d="M256.478976 80M263.835936 74.77712C263.948256 74.77712,264.116736 74.77712,264.144816 74.77712C264.144816 74.77712,264.172896 74.77712,264.172896 74.77712C264.172896 74.77712,264.34137599999997 74.77712,264.48177599999997 74.77712C267.00897599999996 74.91752,268.497216 76.57424,268.497216 78.65216C268.497216 79.66304,268.160256 80.81432,267.317856 81.90944C265.717296 84.0716,263.105856 85.25096,260.831376 85.25096C259.062336 85.25096,257.546016 84.54896,256.81593599999997 83.11688C256.591296 82.55528,256.478976 82.02176,256.478976 81.43208C256.478976 78.37136,259.904736 74.97368,263.835936 74.77712"></path></g></g><g class="vf-modifiers"><path stroke-width="0.3" fill="black" stroke="none" stroke-dasharray="none" font-family="Arial" font-size="10pt" font-weight="normal" font-style="normal" x="510" y="49.5" width="1" height="41" d="M275.497216 75 A2 2 0 0 0 271.497216 75M0 0M271.497216 75 A2 2 0 0 0 275.497216 75M0 0"></path></g></g><g class="vf-stavenote" id="vf-auto2571"><g class="vf-note" pointer-events="bounding-box"><g class="vf-stem" pointer-events="bounding-box"><path stroke-width="1.5" fill="none" stroke="black" stroke-dasharray="none" font-family="Arial" font-size="10pt" font-weight="normal" font-style="normal" x="510" y="49.5" width="1" height="41" d="M382.489488 85L382.489488 50"></path></g><g class="vf-notehead" pointer-events="bounding-box"><path stroke-width="0.3" fill="black" stroke="none" stroke-dasharray="none" font-family="Arial" font-size="10pt" font-weight="normal" font-style="normal" x="510" y="49.5" width="1" height="41" d="M371.221248 85M378.578208 79.77712C378.69052800000003 79.77712,378.859008 79.77712,378.887088 79.77712C378.887088 79.77712,378.915168 79.77712,378.915168 79.77712C378.915168 79.77712,379.083648 79.77712,379.224048 79.77712C381.75124800000003 79.91752,383.239488 81.57424,383.239488 83.65216C383.239488 84.66304,382.902528 85.81432,382.060128 86.90944C380.459568 89.0716,377.848128 90.25096,375.573648 90.25096C373.80460800000003 90.25096,372.288288 89.54896,371.558208 88.11688C371.333568 87.55528,371.221248 87.02176,371.221248 86.43208C371.221248 83.37136,374.647008 79.97368,378.578208 79.77712"></path></g><g class="vf-flag" pointer-events="bounding-box"><path stroke-width="0.3" fill="black" stroke="none" stroke-dasharray="none" font-family="Arial" font-size="10pt" font-weight="normal" font-style="normal" x="510" y="49.5" width="1" height="41" d="M382.489488 48M381.815568 52.52088L381.815568 48.1404L381.927888 48.1404C382.236768 48.1404,382.433328 48.33696,382.489488 48.67392C383.079168 51.48192,384.848208 54.54264,387.29116799999997 56.8452C390.014928 59.40048,391.390848 62.91048,391.390848 66.53280000000001C391.390848 69.95856,390.183408 73.52472,387.740448 76.47312C387.319248 77.03472,387.29116799999997 77.03472,387.01036799999997 77.03472C386.673408 77.03472,386.448768 76.782,386.448768 76.44504C386.448768 76.19232,386.476848 76.13616,386.757648 75.82728C388.891728 73.24392,389.958768 70.12704,389.958768 67.15056C389.958768 64.51104000000001,389.11636799999997 61.98384,387.375408 60.0744C386.308368 58.89504,384.342768 57.77184,381.843648 56.90136C381.843648 56.87328,381.815568 56.0028,381.815568 52.52088"></path></g></g><g class="vf-modifiers"></g></g><g class="vf-stavenote" id="vf-auto2581"><g class="vf-note" pointer-events="bounding-box"><g class="vf-stem" pointer-events="bounding-box"><path stroke-width="1.5" fill="none" stroke="black" stroke-dasharray="none" font-family="Arial" font-size="10pt" font-weight="normal" font-style="normal" x="510" y="49.5" width="1" height="41" d="M442.767312 90L442.767312 55"></path></g><g class="vf-notehead" pointer-events="bounding-box"><path stroke-width="0.3" fill="black" stroke="none" stroke-dasharray="none" font-family="Arial" font-size="10pt" font-weight="normal" font-style="normal" x="510" y="49.5" width="1" height="41" d="M431.499072 90M438.856032 84.77712C438.96835200000004 84.77712,439.136832 84.77712,439.164912 84.77712C439.164912 84.77712,439.192992 84.77712,439.192992 84.77712C439.192992 84.77712,439.361472 84.77712,439.501872 84.77712C442.02907200000004 84.91752,443.517312 86.57424,443.517312 88.65216C443.517312 89.66304,443.180352 90.81432,442.33795200000003 91.90944C440.737392 94.0716,438.125952 95.25096,435.851472 95.25096C434.08243200000004 95.25096,432.56611200000003 94.54896,431.836032 93.11688C431.611392 92.55528,431.499072 92.02176,431.499072 91.43208C431.499072 88.37136,434.92483200000004 84.97368,438.856032 84.77712"></path></g></g><g class="vf-modifiers"></g></g></svg>
