<?xml version="1.0" encoding="utf-8" standalone="no"?>
<svg width="500" height="110" xmlns="http://www.w3.org/2000/svg"><path stroke-width="1" fill="none" stroke="#999999" stroke-dasharray="none" font-family="Arial" font-size="10pt" font-weight="normal" font-style="normal" d="M10 50L510 50"></path><path stroke-width="1" fill="none" stroke="#999999" stroke-dasharray="none" font-family="Arial" font-size="10pt" font-weight="normal" font-style="normal" d="M10 60L510 60"></path><path stroke-width="1" fill="none" stroke="#999999" stroke-dasharray="none" font-family="Arial" font-size="10pt" font-weight="normal" font-style="normal" d="M10 70L510 70"></path><path stroke-width="1" fill="none" stroke="#999999" stroke-dasharray="none" font-family="Arial" font-size="10pt" font-weight="normal" font-style="normal" d="M10 80L510 80"></path><path stroke-width="1" fill="none" stroke="#999999" stroke-dasharray="none" font-family="Arial" font-size="10pt" font-weight="normal" font-style="normal" d="M10 90L510 90"></path><rect stroke-width="0.3" fill="black" stroke="black" stroke-dasharray="none" font-family="Arial" font-size="10pt" font-weight="normal" font-style="normal" x="510" y="49.5" width="1" height="41"></rect><path stroke-width="0.3" fill="black" stroke="none" stroke-dasharray="none" font-family="Arial" font-size="10pt" font-weight="normal" font-style="normal" x="510" y="49.5" width="1" height="41" d="M15 80M29.0544 36.8288C29.112000000000002 36.800000000000004,29.1696 36.800000000000004,29.256 36.800000000000004C29.601599999999998 36.800000000000004,30.0048 37.088,30.5808 37.808C32.9136 40.4864,34.5552 45.152,34.5552 48.9536C34.5552 49.241600000000005,34.4976 49.472,34.4976 49.760000000000005C34.2384 54.2816,32.3952 57.9968,28.7376 61.510400000000004L27.7584 62.4608L27.412799999999997 62.8352L27.412799999999997 62.9504L27.6144 63.8144L27.9312 65.3696L28.247999999999998 66.8096C28.68 68.768,28.852800000000002 69.776,28.852800000000002 69.776C28.852800000000002 69.776,28.852800000000002 69.776,28.852800000000002 69.776C28.852800000000002 69.776,28.968 69.776,29.112000000000002 69.74719999999999C29.256 69.74719999999999,29.7168 69.6896,30.206400000000002 69.6896C30.552 69.6896,30.897599999999997 69.74719999999999,31.0704 69.74719999999999C35.1312 70.2656,38.270399999999995 73.1744,39.1632 77.264C39.336 77.9264,39.3936 78.6464,39.3936 79.3664C39.3936 83.2544,37.0608 86.9696,33.172799999999995 88.7264C32.9424 88.8704,32.855999999999995 88.89920000000001,32.855999999999995 88.89920000000001L32.855999999999995 88.928C32.855999999999995 88.928,33.028800000000004 89.5904,33.172799999999995 90.3392L33.6048 92.528L34.007999999999996 94.2848C34.2384 95.408,34.3536 96.2144,34.3536 96.9344C34.3536 97.568,34.2672 98.144,34.1232 98.8064C33.144 102.8096,29.6592 105.2,26.0304 105.2C24.244799999999998 105.2,22.401600000000002 104.624,20.788800000000002 103.328C19.3488 102.11840000000001,18.7152 101.024,18.7152 99.584C18.7152 97.0496,20.759999999999998 95.264,22.891199999999998 95.264C23.64 95.264,24.3888 95.4944,25.108800000000002 95.9264C26.3184 96.7616,26.8656 98.0288,26.8656 99.2672C26.8656 101.168,25.540799999999997 103.03999999999999,23.2656 103.184L23.0352 103.184L23.208 103.2992C24.1584 103.7024,25.108800000000002 103.904,26.0304 103.904C28.3632 103.904,30.552 102.72319999999999,31.8768 100.6784C32.6256 99.5264,33.028800000000004 98.1728,33.028800000000004 96.8192C33.028800000000004 96.3008,32.9424 95.7824,32.827200000000005 95.2064C32.827200000000005 95.1488,32.7408 94.688,32.6256 94.256C31.992 91.1456,31.6176 89.3312,31.6176 89.3312C31.6176 89.3312,31.6176 89.3312,31.6176 89.3312C31.56 89.3312,31.4448 89.3312,31.3584 89.3888C31.0704 89.4464,30.465600000000002 89.5904,30.206400000000002 89.6192C29.5728 89.7056,28.968 89.7344,28.392 89.7344C22.7472 89.7344,17.5056 85.9328,15.6912 80.3168C15.2304 78.8192,14.9712 77.3216,14.9712 75.824C14.9712 72.8288,15.9216 69.8912,17.7648 67.2704C19.7808 64.4192,21.7968 61.971199999999996,24.273600000000002 59.436800000000005L25.1376 58.544L24.936 57.4784L24.5616 55.7216L24.072 53.4752C23.927999999999997 52.64,23.755200000000002 51.833600000000004,23.726399999999998 51.6608C23.5824 50.7104,23.496000000000002 49.7888,23.496000000000002 48.8384C23.496000000000002 45.2096,24.6768 41.7248,26.894399999999997 38.931200000000004C27.5568 38.0672,28.7376 36.9152,29.0544 36.8288M30.8112 42.5312C30.7536 42.5312,30.6672 42.5312,30.5808 42.5312C29.4 42.5312,27.8736 43.6256,26.8368 45.2384C25.7712 46.8224,25.224 48.924800000000005,25.224 51.0848C25.224 51.6608,25.2528 52.2656,25.339199999999998 52.870400000000004C25.4256 53.302400000000006,25.4544 53.5904,25.6848 54.6272L26.088 56.4416C26.2032 56.9888,26.2896 57.4208,26.2896 57.4784L26.2896 57.4784C26.3184 57.4784,27.211199999999998 56.4992,27.499200000000002 56.1536C30.379199999999997 52.8992,32.1072 49.472,32.4816 46.448C32.510400000000004 46.160000000000004,32.510400000000004 45.9296,32.510400000000004 45.641600000000004C32.510400000000004 44.7488,32.3952 43.8848,32.1936 43.424C31.9632 42.9632,31.4448 42.5888,30.8112 42.5312M26.4624 64.7936C26.4048 64.3904,26.3184 64.0736,26.3184 64.016C26.3184 64.016,26.3184 64.016,26.2896 64.016C26.232 64.016,24.9936 65.456,24.1296 66.464C22.660800000000002 68.2496,21.1056 70.3808,20.472 71.4176C19.2624 73.4624,18.6576 75.7376,18.6576 77.984C18.6576 79.4528,18.9456 80.864,19.464 82.2176C21.019199999999998 86.2208,24.5904 88.7264,28.4784 88.7264C28.9392 88.7264,29.4576 88.6976,29.9472 88.6112C30.5808 88.496,31.3584 88.2656,31.3584 88.1792L31.3584 88.1792C31.3584 88.1792,31.3008 87.8912,31.2144 87.5744L30.379199999999997 83.456L29.7168 80.3744L29.284799999999997 78.2432L28.823999999999998 76.1696C28.593600000000002 74.9312,28.507199999999997 74.6144,28.507199999999997 74.6144C28.507199999999997 74.6144,28.507199999999997 74.5856,28.4784 74.5856C28.3056 74.5856,27.384 75.0464,26.980800000000002 75.3344C25.4832 76.3712,24.7056 78.0128,24.7056 79.6256C24.7056 81.152,25.4544 82.6784,26.894399999999997 83.5712C27.211199999999998 83.7728,27.3264 83.9456,27.3264 84.1472C27.3264 84.176,27.3264 84.2624,27.3264 84.2912C27.2688 84.6368,27.0672 84.7808,26.7792 84.7808C26.664 84.7808,26.52 84.752,26.3472 84.6656C23.6976 83.5136,21.912 80.7776,21.912 77.7824L21.912 77.7824C21.912 74.3264,24.072 71.3312,27.384 70.1504L27.5568 70.0928L27.2688 68.6528L26.4624 64.7936M30.7824 74.4128C30.552 74.384,30.3216 74.384,30.1488 74.384C30.0912 74.384,30.0048 74.384,29.9472 74.384L29.8032 74.384L29.9184 74.9024L30.5232 77.7248L30.897599999999997 79.568L31.3008 81.3824L32.1072 85.3856L32.424 86.912C32.5392 87.3152,32.5968 87.6608,32.6256 87.6608C32.6256 87.6608,32.6256 87.6608,32.6256 87.6608C32.654399999999995 87.6608,33.144 87.3728,33.4608 87.1424C34.9296 86.1056,36.024 84.4928,36.4272 82.8224C36.571200000000005 82.2752,36.6288 81.6992,36.6288 81.152C36.6288 77.8112,34.152 74.7872,30.7824 74.4128"></path><g class="vf-stavenote" id="vf-auto2780"><g class="vf-note" pointer-events="bounding-box"><g class="vf-stem" pointer-events="bounding-box"><path stroke-width="1.5" fill="none" stroke="black" stroke-dasharray="none" font-family="Arial" font-size="10pt" font-weight="normal" font-style="normal" x="510" y="49.5" width="1" height="41" d="M62.690639999999995 75L62.690639999999995 40"></path></g><g class="vf-notehead" pointer-events="bounding-box"><path stroke-width="0.3" fill="black" stroke="none" stroke-dasharray="none" font-family="Arial" font-size="10pt" font-weight="normal" font-style="normal" x="510" y="49.5" width="1" height="41" d="M51.422399999999996 75M58.77936 69.77712C58.891679999999994 69.77712,59.060159999999996 69.77712,59.08824 69.77712C59.08824 69.77712,59.116319999999995 69.77712,59.116319999999995 69.77712C59.116319999999995 69.77712,59.2848 69.77712,59.4252 69.77712C61.9524 69.91752,63.440639999999995 71.57424,63.440639999999995 73.65216C63.440639999999995 74.66304,63.10368 75.81432,62.26128 76.90944C60.66072 79.0716,58.049279999999996 80.25096,55.7748 80.25096C54.005759999999995 80.25096,52.489439999999995 79.54896,51.759359999999994 78.11688C51.53471999999999 77.55528,51.422399999999996 77.02176,51.422399999999996 76.43208C51.422399999999996 73.37136,54.84815999999999 69.97368,58.77936 69.77712"></path></g><g class="vf-flag" pointer-events="bounding-box"><path stroke-width="0.3" fill="black" stroke="none" stroke-dasharray="none" font-family="Arial" font-size="10pt" font-weight="normal" font-style="normal" x="510" y="49.5" width="1" height="41" d="M62.690639999999995 38M62.01671999999999 42.12776L62.01671999999999 38.1404L62.129039999999996 38.1404C62.35368 38.1404,62.57832 38.30888,62.66255999999999 38.53352C62.85912 39.20744,63.561119999999995 40.41488,64.31927999999999 41.45384C65.30207999999999 42.85784,66.45335999999999 44.14952,68.19431999999999 45.80624C70.38456 47.99648,71.592 50.9168,71.592 54.0056C71.592 55.32536,71.33928 56.70128,70.94615999999999 58.02104L70.80575999999999 58.32992L70.94615999999999 58.6388C71.33928 59.9024,71.592 61.22216,71.592 62.51384C71.592 65.04104000000001,70.77767999999999 67.59632,69.28944 69.78656000000001C69.09288 70.0112,68.98056 70.17967999999999,68.55936 70.7132C68.41896 70.90976,68.19431999999999 71.05016,67.99776 71.05016C67.8012 71.05016,67.60463999999999 70.90976,67.49231999999999 70.68512C67.46423999999999 70.60088,67.40808 70.54472,67.40808 70.40432C67.40808 70.26392,67.5204 70.06736000000001,67.77311999999999 69.78656000000001C69.37368 67.87712,70.24416 65.378,70.24416 63.01928C70.24416 62.87888,70.24416 62.822720000000004,70.24416 62.738479999999996C70.24416 62.06456,70.13184 61.22216,70.04759999999999 60.85712C70.01952 60.77288,69.96336 60.63248,69.93527999999999 60.464C69.42984 58.52648,68.25048 56.72936,66.678 55.634240000000005C65.8356 55.01648,64.01039999999999 54.53912,62.465999999999994 54.53912C62.325599999999994 54.53912,62.15711999999999 54.53912,62.129039999999996 54.53912L62.01671999999999 54.53912L62.01671999999999 50.60792L62.01671999999999 46.64864L62.129039999999996 46.64864C62.35368 46.64864,62.57832 46.78904,62.66255999999999 47.04176C62.85912 47.6876,63.561119999999995 48.89504,64.31927999999999 49.90592C65.30207999999999 51.36608,66.50952 52.68584,68.13816 54.2864C68.89631999999999 55.01648,69.57024 55.830799999999996,69.96336 56.5328C69.96336 56.58896,70.01952 56.61704,70.01952 56.61704C70.04759999999999 56.61704,70.04759999999999 56.5328,70.10376 56.42048C70.21607999999999 55.74656,70.24416 55.1288,70.24416 54.482960000000006C70.24416 53.893280000000004,70.21607999999999 53.27552,70.10376 52.62968C70.10376 52.51736,70.04759999999999 52.40504,70.04759999999999 52.37696C70.01952 52.29272,69.96336 52.12424,69.93527999999999 51.98384C69.42984 50.01824,68.25048 48.2492,66.678 47.15408C65.8356 46.50824,64.01039999999999 46.08704,62.465999999999994 46.05896C62.325599999999994 46.05896,62.15711999999999 46.05896,62.129039999999996 46.05896L62.01671999999999 46.05896L62.01671999999999 42.12776"></path></g></g><g class="vf-modifiers"></g></g><g class="vf-stavenote" id="vf-auto2790"><g class="vf-note" pointer-events="bounding-box"><g class="vf-stem" pointer-events="bounding-box"><path stroke-width="1.5" fill="none" stroke="black" stroke-dasharray="none" font-family="Arial" font-size="10pt" font-weight="normal" font-style="normal" x="510" y="49.5" width="1" height="41" d="M120.1477476923077 80L120.1477476923077 45"></path></g><g class="vf-notehead" pointer-events="bounding-box"><path stroke-width="0.3" fill="black" stroke="none" stroke-dasharray="none" font-family="Arial" font-size="10pt" font-weight="normal" font-style="normal" x="510" y="49.5" width="1" height="41" d="M108.8795076923077 80M116.2364676923077 74.77712C116.3487876923077 74.77712,116.5172676923077 74.77712,116.5453476923077 74.77712C116.5453476923077 74.77712,116.5734276923077 74.77712,116.5734276923077 74.77712C116.5734276923077 74.77712,116.74190769230769 74.77712,116.8823076923077 74.77712C119.4095076923077 74.91752,120.8977476923077 76.57424,120.8977476923077 78.65216C120.8977476923077 79.66304,120.5607876923077 80.81432,119.7183876923077 81.90944C118.1178276923077 84.0716,115.5063876923077 85.25096,113.2319076923077 85.25096C111.4628676923077 85.25096,109.9465476923077 84.54896,109.2164676923077 83.11688C108.9918276923077 82.55528,108.8795076923077 82.02176,108.8795076923077 81.43208C108.8795076923077 78.37136,112.3052676923077 74.97368,116.2364676923077 74.77712"></path></g></g><g class="vf-modifiers"><path stroke-width="0.3" fill="black" stroke="none" stroke-dasharray="none" font-family="Arial" font-size="10pt" font-weight="normal" font-style="normal" x="510" y="49.5" width="1" height="41" d="M127.8977476923077 75 A2 2 0 0 0 123.8977476923077 75M0 0M123.8977476923077 75 A2 2 0 0 0 127.8977476923077 75M0 0"></path></g></g><g class="vf-stavenote" id="vf-auto2799"><g class="vf-note" pointer-events="bounding-box"><g class="vf-stem" pointer-events="bounding-box"><path stroke-width="1.5" fill="none" stroke="black" stroke-dasharray="none" font-family="Arial" font-size="10pt" font-weight="normal" font-style="normal" x="510" y="49.5" width="1" height="41" d="M308.68975384615385 85L308.68975384615385 50"></path></g><g class="vf-notehead" pointer-events="bounding-box"><path stroke-width="0.3" fill="black" stroke="none" stroke-dasharray="none" font-family="Arial" font-size="10pt" font-weight="normal" font-style="normal" x="510" y="49.5" width="1" height="41" d="M297.42151384615386 85M304.7784738461539 79.77712C304.8907938461539 79.77712,305.05927384615387 79.77712,305.08735384615386 79.77712C305.08735384615386 79.77712,305.11543384615385 79.77712,305.11543384615385 79.77712C305.11543384615385 79.77712,305.28391384615384 79.77712,305.42431384615384 79.77712C307.95151384615383 79.91752,309.43975384615385 81.57424,309.43975384615385 83.65216C309.43975384615385 84.66304,309.1027938461539 85.81432,308.2603938461539 86.90944C306.65983384615384 89.0716,304.0483938461539 90.25096,301.77391384615385 90.25096C300.0048738461539 90.25096,298.4885538461539 89.54896,297.75847384615383 88.11688C297.53383384615387 87.55528,297.42151384615386 87.02176,297.42151384615386 86.43208C297.42151384615386 83.37136,300.8472738461539 79.97368,304.7784738461539 79.77712"></path></g><g class="vf-flag" pointer-events="bounding-box"><path stroke-width="0.3" fill="black" stroke="none" stroke-dasharray="none" font-family="Arial" font-size="10pt" font-weight="normal" font-style="normal" x="510" y="49.5" width="1" height="41" d="M308.68975384615385 48M308.01583384615384 52.52088L308.01583384615384 48.1404L308.12815384615385 48.1404C308.43703384615384 48.1404,308.6335938461539 48.33696,308.68975384615385 48.67392C309.27943384615384 51.48192,311.04847384615385 54.54264,313.4914338461538 56.8452C316.21519384615385 59.40048,317.59111384615386 62.91048,317.59111384615386 66.53280000000001C317.59111384615386 69.95856,316.38367384615384 73.52472,313.94071384615387 76.47312C313.51951384615387 77.03472,313.4914338461538 77.03472,313.2106338461538 77.03472C312.87367384615385 77.03472,312.6490338461538 76.782,312.6490338461538 76.44504C312.6490338461538 76.19232,312.6771138461539 76.13616,312.9579138461539 75.82728C315.09199384615385 73.24392,316.1590338461539 70.12704,316.1590338461539 67.15056C316.1590338461539 64.51104000000001,315.3166338461539 61.98384,313.57567384615385 60.0744C312.5086338461538 58.89504,310.54303384615383 57.77184,308.0439138461538 56.90136C308.0439138461538 56.87328,308.01583384615384 56.0028,308.01583384615384 52.52088"></path></g></g><g class="vf-modifiers"></g></g><g class="vf-stavenote" id="vf-auto2809"><g class="vf-note" pointer-events="bounding-box"><g class="vf-stem" pointer-events="bounding-box"><path stroke-width="1.5" fill="none" stroke="black" stroke-dasharray="none" font-family="Arial" font-size="10pt" font-weight="normal" font-style="normal" x="510" y="49.5" width="1" height="41" d="M393.56748923076924 90L393.56748923076924 55"></path></g><g class="vf-notehead" pointer-events="bounding-box"><path stroke-width="0.3" fill="black" stroke="none" stroke-dasharray="none" font-family="Arial" font-size="10pt" font-weight="normal" font-style="normal" x="510" y="49.5" width="1" height="41" d="M382.29924923076925 90M389.65620923076926 84.77712C389.7685292307693 84.77712,389.93700923076926 84.77712,389.96508923076925 84.77712C389.96508923076925 84.77712,389.99316923076924 84.77712,389.99316923076924 84.77712C389.99316923076924 84.77712,390.1616492307692 84.77712,390.3020492307692 84.77712C392.8292492307693 84.91752,394.31748923076924 86.57424,394.31748923076924 88.65216C394.31748923076924 89.66304,393.98052923076926 90.81432,393.13812923076927 91.90944C391.53756923076924 94.0716,388.9261292307692 95.25096,386.65164923076924 95.25096C384.8826092307693 95.25096,383.36628923076927 94.54896,382.6362092307692 93.11688C382.41156923076926 92.55528,382.29924923076925 92.02176,382.29924923076925 91.43208C382.29924923076925 88.37136,385.7250092307693 84.97368,389.65620923076926 84.77712"></path></g></g><g class="vf-modifiers"></g></g></svg>
